<svg viewBox="0 0 24 24" fill="none" xmlns="http://www.w3.org/2000/svg" width="1em" height="1em">
  <path fill-rule="evenodd" clip-rule="evenodd" d="M8.13 2.767a9.986 9.986 0 015.281-.663L6.808 13.9 8.129 2.767zm1.308 13.044l9.848-10.645a9.988 9.988 0 012.529 4.936l-12.377 5.71zm12.475-5.095l-11.728 6.561 11.003-1.305a9.98 9.98 0 00.725-5.256zm-1.157 6.139a10.07 10.07 0 01-3.167 3.467l-7.147-1.42 10.314-2.047zM14.015 2.207l-5.741 12.44L18.924 4.8a9.996 9.996 0 00-4.909-2.593zm1.947 19.006a9.957 9.957 0 01-3.145.787l-2.632-1.472 5.777.685zM2.844 7.9A9.955 9.955 0 002 11.12l1.557 2.78-.713-6zm.886-1.568A10.07 10.07 0 017.26 3.18L5.183 13.643 3.73 6.333z" fill="#D74D31"/>
</svg>
