<svg xmlns="http://www.w3.org/2000/svg" width="64" height="64" viewBox="-4.58 166.28 62.822 56.106" fill-rule="evenodd"><path d="M34.285 196.6L18.86 208.425h17.997L16.93 224.238h5.528l24.553-19.026H28.886L39.94 196.6z" fill="#eea852"/><path d="M17.012 185.716H11.46L-4.58 198.16l20.564.103c9.563 0 19.433-3.548 19.433-12.495s-9.974-14.757-26.734-8.587c-1.13 1.234-5.963 5.76-6.786 6.582 15.937-8.02 29.972-7.6 29.972 1.954 0 9.05-14.446 9.05-15.885 9.05H5.496z" fill="#3da0ca"/><path d="M8.683 177.18c-1.13 1.234-5.963 5.76-6.786 6.582 3.558-1.8 7.022-3.16 10.255-4.103 2.407-3.175 8.87-11.836 18.02-11.836 9.768 0 13.058 5.76 13.058 9.153 0 3.702-2.776 6.48-2.776 6.48s4.215.206 6.272.206 7.917.617 7.917 6.273-6.683 6.48-8.945 6.48H34.5l-4.42 3.497 15.114.102c6.786 0 13.058-3.394 13.058-10.078s-5.758-9.667-11.72-9.667c.617-1.028.823-2.057.823-3.3s-2.056-12.546-17.377-12.546c-9.87 0-15.95 7.8-21.283 12.752z" fill="#2c6ba3"/><path d="M34.48 196.418h5.705l-4.566 3.548-5.653-.055z" fill="#928680"/><path d="M12.152 179.658l-.105.032c-2.314.75-7.265 2.8-10.15 4.07.823-.822 5.655-5.348 6.786-6.582 2.56-.943 4.963-1.605 7.196-2.02-1.66 1.76-2.922 3.436-3.727 4.498z" fill="#3288ba"/></svg>