<?xml version="1.0" encoding="UTF-8"?>
<svg inkscape:version="1.0.2 (e86c870879, 2021-01-15, custom)" sodipodi:docname="kylin.svg" version="1.1" viewBox="0 0 264.6 241.8" xmlns="http://www.w3.org/2000/svg" xmlns:cc="http://creativecommons.org/ns#" xmlns:dc="http://purl.org/dc/elements/1.1/" xmlns:inkscape="http://www.inkscape.org/namespaces/inkscape" xmlns:rdf="http://www.w3.org/1999/02/22-rdf-syntax-ns#" xmlns:sodipodi="http://sodipodi.sourceforge.net/DTD/sodipodi-0.dtd">
 <sodipodi:namedview id="cvfa" bordercolor="#666666" borderopacity="1.0" fit-margin-bottom="0" fit-margin-left="0" fit-margin-right="0" fit-margin-top="0" inkscape:current-layer="layer1" inkscape:cx="684.67107" inkscape:cy="398.95034" inkscape:document-rotation="0" inkscape:document-units="mm" inkscape:pageopacity="0.0" inkscape:pageshadow="2" inkscape:window-height="1014" inkscape:window-maximized="1" inkscape:window-width="1920" inkscape:window-x="0" inkscape:window-y="36" inkscape:zoom="0.24748737" pagecolor="#ffffff" showgrid="false"/>
 <title>Apache Kylin logo</title>
 <metadata>
  <rdf:RDF>
   <cc:Work rdf:about="">
    <dc:format>image/svg+xml</dc:format>
    <dc:type rdf:resource="http://purl.org/dc/dcmitype/StillImage"/>
    <dc:title/>
   </cc:Work>
  </rdf:RDF>
 </metadata>
 <g transform="translate(-23.83 -39.07)" inkscape:groupmode="layer" inkscape:label="Layer 1">
  <g transform="translate(54.05 11.15)">
   <path d="m100.6 269.6c-9.588-.8319-17.98-2.509-26.4-5.274-24.1-7.916-44.57-23.81-59.52-46.19-4.14-6.2-5.711-9.859-5.942-13.84-.1626-2.802.1247-4.082 1.315-5.86.6616-.9883 1.27-1.49 2.676-2.204 1.718-.8734 1.962-.9243 4.366-.9072 5.54.0393 9.909 2.719 14.91 9.147.9449 1.214 3.598 4.945 5.895 8.292 4.748 6.918 8.337 11.77 11.54 15.61 2.812 3.371 7.939 8.491 10.75 10.74 4.617 3.688 15.5 9.514 23.34 12.5 25.58 9.739 51.8 8.822 77.92-2.723 13.45-5.944 26.54-15.03 36.05-25.02 3.258-3.422 4.412-4.294 5.017-3.792.5196.4312.4144 1.958-.2205 3.202-1.354 2.655-5.713 7.765-11.11 13.03-9.282 9.051-17.63 14.93-29.47 20.77-17.56 8.66-35.06 12.78-53.69 12.65-3.506-.0245-6.85-.0858-7.432-.1363zm-17.33-82.83c-2.354-.4285-1.965-2.794.8684-5.279 2.323-2.037 7.757-4.609 14.37-6.803 4.476-1.484 5.004-1.904 4.985-3.958-.03-3.203-2.599-6.32-9.627-11.68-7.399-5.643-9.525-16.72-4.732-24.65 2.872-4.751 8.046-8.621 13.21-9.882 8.858-2.162 15.77.3597 18.99 6.924 1.216 2.481 2.003 5.249 1.764 6.203-.2453.9775-1.029.787-3.003-.73-2.841-2.183-4.78-2.98-7.517-3.091-2.808-.1138-4.582.3988-6.088 1.759-1.738 1.57-2.178 2.699-2.187 5.607-.007 2.292.0682 2.673.8482 4.319 4.157 8.777 17.62 10.47 27.03 3.398 3.068-2.306 6.868-8.684 7.987-13.41.472-1.992.5447-2.944.445-5.821-.102-2.944-.233-3.767-.9095-5.714-1.707-4.913-3.781-7.555-7.403-9.43-5.541-2.869-12.49-3.639-21.92-2.433-8.026 1.026-16.47.6567-21.5-.9408-2.199-.6983-2.975-1.258-2.975-2.143 0-.733.2561-.813 3.307-1.033 4.712-.3405 9.872-1.615 18.2-4.496 2.734-.9456 6.127-2.012 7.541-2.369 8.624-2.181 17.73-2.781 24.45-1.611 2.855.4967 6.301 2.206 8.937 4.434 7.662 6.475 15.08 19.63 21.09 37.36 1.854 5.479 3.561 9.252 5.573 12.32 4.535 6.91 10.57 11.13 18.2 12.73.8731.1833 3.076.3251 4.895.3152 4.031-.022 7.167-.7587 11.04-2.595 6.706-3.177 10.77-8.153 12.82-15.68.7503-2.761.8269-9.374.1386-11.97-1.581-5.962-5.413-9.874-11.43-11.67-2.637-.7869-8.524-1.008-10.39-.39-2.698.8962-4.862 2.965-5.928 5.668-.4794 1.216-.5933 2.045-.6055 4.408-.0135 2.616.0561 3.062.6889 4.412 1.918 4.092 5.562 6.026 11.37 6.035 2.86.004 3.307.2336 3.019 1.547-.3281 1.494-1.959 2.483-4.823 2.925-3.933.6072-7.532.1338-10.87-1.429-3.392-1.59-6.558-5.264-7.935-9.211-.8105-2.323-.9072-5.745-.2367-8.381.5956-2.342 2.514-6.148 4.065-8.063 4.395-5.43 11.69-8.228 19.57-7.504 11.05 1.016 19.61 7.043 23.38 16.47 3.062 7.647 3.169 19.81.2407 27.41-3.958 10.28-13.49 17.98-26.47 21.4-10.35 2.727-18.73 2.696-27.12-.0997-5.277-1.76-11.77-5.602-15.66-9.258-2.414-2.271-3.234-2.545-3.234-1.082 0 .7386.3757 1.375 1.993 3.373 2.543 3.143 3.694 5.383 3.475 6.76-.2163 1.358-1.145 2.104-2.88 2.314-2.039.247-28.04.0435-28.58-.2237-1.15-.5624.1371-3.411 2.236-4.951 1.574-1.155 3.039-1.749 5.424-2.199 2.029-.3831 2.725-.8263 2.725-1.735 0-.2264-.598-1.603-1.329-3.058-1.156-2.303-1.91-4.68-2.529-7.975-.2671-1.422-1.947-.8018-3.516 1.298-2.724 3.644-4.615 9.428-5.851 17.89-.6062 4.151-.9306 5.058-1.981 5.536-.5223.238-6.167.3072-22.84.2801-12.18-.0198-22.44-.0902-22.81-.1564zm-90.5-.3367c-20.08-.1231-21.63-.1648-22.29-.6014-.9235-.6052-.9305-1.51-.02568-3.325 2.461-4.938 8.592-8.385 18.48-10.39 6.334-1.284 10.1-2.778 13.56-5.378 4.12-3.097 4.608-5.927 1.311-7.603-3.438-1.748-7.334-5.277-9.562-8.661-3.245-4.93-5.428-12.81-5.428-19.61 0-3.536 1.852-10.34 3.969-14.58 3.109-6.23 7.496-10.61 13.63-13.61 4.138-2.025 9.438-3.289 13.79-3.289.9274 0 1.558-.1548 1.961-.4816.5424-.4392.5671-.5653.2804-1.434-.4316-1.308-2.272-2.925-4.112-3.614-1.721-.6439-3.664-.9365-8.896-1.34-1.976-.1522-4.179-.4508-4.895-.6635-1.858-.5521-3.671-1.786-4.53-3.084-.6227-.941-.7407-1.396-.7403-2.858.0002646-1.538.1261-1.969 1.088-3.723 1.015-1.852 1.432-2.944 2.198-5.755.2594-.9511.4114-1.124.9856-1.124.3734 0 1.113.342 1.643.7599 3.216 2.535 13.03 5.855 17.32 5.855 2.708 0 3.978-.3925 4.987-1.541.7129-.812.7883-1.049.6386-2.005-.2763-1.764-1.554-4.165-2.946-5.534-1.555-1.53-4.701-3.139-7.655-3.915-1.57-.4126-3.005-.5659-5.556-.5938-3.795-.0414-4.103.04803-6.198 1.798-1.743 1.456-2.317 1.325-4.259-.976-4.863-5.761-7.124-11.74-5.715-15.11.4585-1.097 1.047-1.328 5.15-2.018 1.796-.302 5.487-1.014 8.202-1.582 10.64-2.225 16.51-2.949 23.86-2.938 6.181.0092 6.452-.07591 8.111-2.551 2.194-3.273 2.988-6.453 2.995-11.99.0053-4.477.1988-5.02 1.788-5.02 1.252 0 3.049.884 3.941 1.939 1.761 2.083 2.437 4.837 2.74 11.16.1854 3.875.3892 5.608.8893 7.564 1.025 4.007 1.606 4.904 5.982 9.228 5.435 5.37 7.061 7.95 8.061 12.79.7996 3.871.3449 8.456-1.186 11.96-1.89 4.325-6.379 9.31-11.39 12.65-3.868 2.576-8.34 4.706-25.38 12.09-3.274 1.418-6.727 2.97-7.673 3.447-6.156 3.108-11.92 8.988-14.14 14.43-.6378 1.561-.7732 2.32-.8723 4.89-.1828 4.741.8283 7.936 3.736 11.8 2.002 2.663 5.839 5.6 8.727 6.679 3.559 1.329 8.548 1.398 12.72.1751 4.067-1.192 8.783-3.986 8.232-4.878-.2828-.4576-.8824-.3403-2.704.529-6.908 3.297-14.51 3.797-18.84 1.24-1.891-1.114-4.944-4.173-6.066-6.076-2.509-4.254-3.307-10.28-1.903-14.36.6666-1.937 1.689-3.471 3.447-5.169 2.652-2.562 10.95-6.804 27.12-13.86 9.57-4.18 11.45-5.114 14.79-7.335 11.65-7.75 18.39-20.4 18.41-34.56.0027-1.637.1096-2.977.2376-2.977.3064 0 2.096 2.383 3.446 4.589 6.916 11.3 9.289 26.43 5.951 37.94-3.125 10.78-10.45 19.2-19.51 22.42-3.282 1.168-5.772 1.564-9.699 1.543-3.698-.0196-5.531-.2974-9.393-1.424-5.142-1.5-8.971-1.643-13.13-.4918-3.803 1.054-5.716 2.586-6.478 5.188-.5036 1.721-.1938 3.729.8796 5.701.9577 1.76 1.827 2.373 3.566 2.514 2.578.2084 6.03-1.602 6.03-3.163 0-.3424-.7739-1.959-1.72-3.591s-1.72-3.26-1.72-3.616c0-.981.9255-1.471 2.771-1.468 2.416.004 3.958.8348 5.815 3.133 1.746 2.161 3.321 3.299 5.185 3.746 2.267.5438 2.593 1.745 1.426 5.242-1.923 5.758-6.828 12.49-15.74 21.61-2.846 2.911-5.804 6.186-6.573 7.277-2.473 3.511-4.861 8.681-6.23 13.49-.96 3.374-1.812 4.231-4.511 4.54-.4366.0499-10.5.0311-22.37-.0416zm38.98-5.412c-1.526-.6729-1.414-2.908.2404-4.792 1.457-1.659 1.958-1.795 7.181-1.955 4.271-.1303 4.754-.1927 5.093-.6576.2062-.2825.3721-.7587.3686-1.058-.01032-.8944-1.129-3.342-2.344-5.13-1.931-2.841-2.257-3.804-2.269-6.704-.01233-2.832.2624-3.489 1.936-4.628 2.787-1.898 10.32-1.094 17.92 1.911 7.385 2.921 14.64 4.085 25.45 4.085 5.609 0 6.446.0531 6.586.4175.2009.5235-.6153 1.647-1.766 2.429-2.923 1.989-11.25 2.947-21.09 2.427-6.031-.3188-6.621-.2147-7.038 1.241-.457 1.596.3747 3.498 2.58 5.9 2.978 3.244 3.206 4.921.8412 6.186-1.081.5781-1.175.5817-16.96.6424-13.22.0508-16.02-.002-16.73-.3141zm172.3-79.82c-1.868-.2765-4.083-1.459-5.6-2.989-.7299-.7361-4.064-4.611-7.408-8.612-14.42-17.24-19.1-22.14-26.5-27.73-5.773-4.359-13.94-8.955-20.46-11.51-20.06-7.858-43.47-8.879-67.3-2.932-5.445 1.359-5.295.7337.3507-1.46 17.83-6.928 37.89-9.418 56.63-7.029 29.03 3.701 53.91 18.41 69.39 41 5.501 8.032 7.704 12.6 7.714 16.01.0114 3.805-2.662 5.868-6.811 5.253z" style="fill:#f09d13;stroke-width:.2646" inkscape:connector-curvature="0" sodipodi:nodetypes="csssscsssscssscssscccsccsssscccsccccccccsscssscssccccscccccccscccscccsccscsccccscccccccccccssccsscscccssccscscsscsssssssscscsssssssscccsscscccssssscsssscsssccssscscsscsccccsscccccssccsccscccccsssssscc"/>
  </g>
  <text x="105.83334" y="223.34245" style="fill:#f09d13;font-family:Montserrat;font-size:20.33px;letter-spacing:0px;line-height:125%;stroke-width:.7393px;word-spacing:0px" xml:space="preserve"><tspan x="105.83334" y="223.34245" style="fill:#f09d13;stroke-width:.7393px" sodipodi:role="line">Apache Kylin</tspan></text>
 </g>
</svg>
