<svg viewBox="0 0 24 24" fill="none" xmlns="http://www.w3.org/2000/svg" width="1em" height="1em">
  <path fill="#545454" d="M5.451 5.768h1.451v6.919H5.451zM11.269 5.768h1.451v6.919h-1.451zM17.086 5.768h1.451v6.919h-1.451z"/>
  <path fill="#E87800" d="M4 16.849h4.366V21H4z"/>
  <path fill="#828282" d="M4 14.081h16v1.125H4z"/>
  <path fill="#E87800" d="M9.817 16.849h4.366V21H9.817zM15.634 16.849H20V21h-4.366z"/>
  <path fill="#4D8DE3" d="M4 3h4.366v4.151H4zM4 8.535h4.366v4.151H4zM9.817 8.535h4.366v4.151H9.817zM15.634 3H20v4.151h-4.366zM15.634 8.535H20v4.151h-4.366zM9.817 3h4.366v4.151H9.817z"/>
</svg>
