<svg width="186" height="40" viewBox="0 0 186 40" fill="none" xmlns="http://www.w3.org/2000/svg">
<path d="M16.7736 0.122444C14.3026 0.56362 12.2677 1.35774 9.38975 3.0048C5.29082 5.32833 1.42445 7.35774 0.66862 7.53421C0.0290704 7.71068 0 7.85774 0 10.4754C0 15.3871 1.45352 22.3871 3.31403 26.3871C4.44778 28.8577 5.93037 31.0048 6.51178 31.0048C6.71527 31.0048 7.23854 31.446 7.67459 32.0048C8.95369 33.7107 13.0817 36.8577 15.9306 38.2695L18.6051 39.6519L21.3086 38.2695C24.1866 36.7695 28.2855 33.6813 29.5356 32.0048C29.9716 31.446 30.4949 31.0048 30.6984 31.0048C30.9309 31.0048 31.5123 30.446 32.0065 29.7401C34.9717 25.7107 37.4136 16.3283 37.152 10.0342L37.0648 7.74009L35.3496 7.03421C34.4194 6.65186 32.0356 5.38715 30.0588 4.24009C28.082 3.09303 25.7855 1.85774 24.9424 1.47538C22.2389 0.269502 18.983 -0.259909 16.7736 0.122444ZM23.8087 2.41656C25.0006 2.91656 27.5588 4.2695 29.5065 5.41656C31.4542 6.53421 33.6054 7.68127 34.3031 7.91656C35.0008 8.18127 35.6985 8.53421 35.8148 8.74009C36.2218 9.38715 36.0473 13.5342 35.495 16.946C34.8554 20.5636 34.0705 23.446 32.9659 25.9754C32.181 27.7401 30.0007 30.7989 29.6809 30.5636C29.5646 30.5048 28.8669 31.0342 28.1692 31.7695C25.5238 34.5342 20.2039 38.0636 18.6632 38.0636C17.0934 38.0636 12.5294 35.2107 9.70952 32.446C8.57578 31.3283 7.58738 30.4754 7.50017 30.5636C7.41296 30.6519 6.74434 29.946 6.01758 28.946C3.51752 25.593 1.5698 18.9166 1.25003 12.593C1.10468 9.7695 1.16282 8.97538 1.48259 8.71068C1.71516 8.5048 3.13961 7.71068 4.65127 6.94597C6.16293 6.15186 8.72113 4.82833 10.2909 3.94597C14.448 1.68127 15.8725 1.2695 19.0411 1.38715C21.1633 1.47538 22.0645 1.68127 23.8087 2.41656Z" fill="#133653"/>
<path d="M15.6979 2.32855C13.5177 2.9462 11.5409 3.91679 7.70358 6.15208C5.93028 7.21091 4.0407 8.21091 3.48837 8.38738C1.91856 8.91679 1.74414 9.1815 1.74414 10.8286C1.74414 13.0933 2.52904 18.1521 3.34301 21.2109C4.5349 25.7403 5.55237 27.5344 8.80826 30.7109C12.1514 33.9462 13.6049 35.0638 16.541 36.5344L18.6631 37.5933L20.4946 36.6227C23.2563 35.1815 25.5238 33.4756 28.4308 30.6815C31.5995 27.6227 32.8204 25.3874 34.0414 20.4168C35.0298 16.3874 35.7275 10.2403 35.2623 9.41679C35.0879 9.12267 34.5065 8.71091 33.9251 8.50502C33.3437 8.29914 31.0181 7.06385 28.7215 5.76973C26.4249 4.4462 23.7795 3.09326 22.8202 2.76973C20.4655 1.9462 17.6747 1.76973 15.6979 2.32855ZM9.97107 8.06385C10.3781 8.53444 10.8141 9.21091 10.9013 9.56385C11.0757 10.1227 11.1339 10.1227 11.599 9.71091C12.3548 9.03444 14.5351 8.12267 16.0177 7.91679C17.2387 7.74032 17.4422 7.79914 18.4015 8.65208C18.9829 9.15208 19.8841 9.71091 20.4074 9.85797C20.9888 10.005 21.5411 10.4462 21.8609 11.005C22.1225 11.4756 22.326 11.8874 22.2679 11.8874C22.2097 11.8874 21.076 12.0933 19.7678 12.358C17.0352 12.858 13.4014 14.1521 11.4246 15.2697C10.6978 15.6521 10.0001 15.9168 9.85479 15.8286C9.41873 15.5638 9.56409 14.4462 10.1746 13.505C10.5525 12.9168 10.6397 12.5344 10.4362 12.2991C9.88386 11.6227 8.43034 8.32855 8.43034 7.76973C8.43034 6.91679 9.12803 7.06385 9.97107 8.06385ZM27.3261 12.9462C27.675 13.2991 27.6459 13.4462 27.1517 14.1521C26.5994 14.8874 23.7505 16.8874 23.1981 16.8874C23.0818 16.8874 22.8202 16.5344 22.6167 16.0638C22.0353 14.8286 20.4364 14.858 16.5991 16.1521C12.9072 17.3874 12.0351 18.0933 12.2967 19.6521C12.5002 20.858 12.1804 21.005 9.27338 21.005C6.5989 21.005 5.90121 20.0933 7.47102 18.5933C9.70944 16.4462 18.4306 13.005 23.1109 12.4168C24.5354 12.2109 26.861 12.5344 27.3261 12.9462ZM24.2737 17.8874C26.3959 18.7991 26.861 22.358 25.0296 24.005C24.5354 24.4462 23.9249 24.8286 23.6923 24.8286C23.14 24.8286 23.14 25.0344 23.7505 27.1815C24.0993 28.505 24.3609 28.9462 24.7389 28.9462C25.4365 28.9462 25.611 29.2991 25.4075 30.3874C25.233 31.2991 25.204 31.2991 23.3725 31.2991H21.5411L21.2504 30.1815C21.076 29.5933 20.7562 28.2109 20.4655 27.0933C20.0294 25.2403 19.9422 25.1227 19.1573 25.1227C18.4306 25.1227 18.2852 25.2697 18.0236 26.358C17.5294 28.2109 17.5294 29.0638 18.0236 29.0933C18.4306 29.0933 18.4887 29.2991 18.3724 30.7109C18.3143 31.2697 18.1108 31.2991 15.1165 31.2991H11.9479L12.1223 30.3286C12.3258 29.1815 12.3839 29.0933 13.1397 29.0933C13.6921 29.0933 13.8665 28.6227 14.7096 24.8286C15.8724 19.7697 15.8433 19.9462 15.1456 19.7403C14.5933 19.5933 14.5642 19.2403 15.0003 17.8286C15.1456 17.2991 22.9365 17.3286 24.2737 17.8874Z" fill="#133653"/>
<path d="M19.3027 20.6226C19.2155 21.0932 19.012 21.8873 18.8957 22.3873C18.6632 23.3285 18.6632 23.3579 19.6225 23.3579C21.8028 23.3579 22.9947 22.152 22.3842 20.5638C22.1516 19.9167 21.919 19.8285 20.7853 19.8285C19.5934 19.8285 19.4771 19.8873 19.3027 20.6226Z" fill="#133653"/>
<path d="M46.9778 16.0636C46.5417 17.4754 46.5708 17.7401 47.2394 17.8283C47.879 17.9165 47.7627 18.1812 45.2917 22.6812C43.0533 26.7989 42.5591 27.4754 41.9777 27.4754C41.5998 27.4754 41.28 27.6518 41.28 27.8283C41.28 28.0342 41.1928 28.5048 41.1056 28.8577C40.9311 29.5342 40.9602 29.5342 43.4021 29.5342C46.0475 29.5342 46.0475 29.5342 46.3382 28.2695C46.4836 27.593 46.4254 27.4754 45.9312 27.4754C45.6115 27.4754 45.3498 27.4165 45.3498 27.3283C45.3498 27.1518 46.2219 25.3577 46.3964 25.1518C46.4545 25.093 47.4138 25.0048 48.5476 24.9165L50.5825 24.7695V26.1224C50.5825 27.2695 50.4953 27.4754 50.0011 27.4754C49.5941 27.4754 49.3616 27.7695 49.1871 28.4165L48.9546 29.3871L51.5418 29.4754C52.9954 29.5048 54.2454 29.4459 54.3617 29.3283C54.478 29.2107 54.6524 28.7401 54.7687 28.2695C54.914 27.6224 54.8559 27.4754 54.3907 27.4754C54.071 27.4754 53.7512 27.3871 53.693 27.2401C53.6058 27.1224 53.4605 24.9459 53.3442 22.3871C53.1407 17.8871 53.1698 17.7695 53.7221 17.7695C54.3326 17.7695 54.6524 17.2401 54.6524 16.2695C54.6524 15.7401 54.3907 15.7107 50.8732 15.7107C48.0825 15.7107 47.0359 15.7989 46.9778 16.0636ZM50.5534 20.4165L50.6116 23.0636H48.9836H47.3557L48.7511 20.4165C49.5069 18.9754 50.2337 17.7695 50.3209 17.7695C50.4372 17.7695 50.5244 18.9459 50.5534 20.4165Z" fill="#133653"/>
<path d="M91.281 16.0636C91.281 16.2695 91.1938 16.7401 91.1066 17.093C90.9612 17.6518 91.0484 17.7695 91.5717 17.7695C92.095 17.7695 92.1822 17.8871 92.0368 18.4165C91.9496 18.7989 91.4554 20.9754 90.9322 23.2695C90.1472 26.6812 89.8856 27.4754 89.4786 27.4754C89.1589 27.4754 88.8972 27.8283 88.7228 28.4165L88.4902 29.3871L90.9322 29.4754C92.2985 29.5342 93.4322 29.5048 93.4903 29.4459C93.5485 29.3871 93.6938 28.9165 93.7811 28.4165C93.9555 27.593 93.8973 27.4754 93.345 27.4754C92.8799 27.4754 92.7345 27.3283 92.8217 26.9459C92.9089 26.6812 93.1415 25.7107 93.345 24.8283C93.6938 23.1812 94.0718 22.6812 95.3218 22.1518C95.8451 21.9459 96.1358 21.9754 96.4265 22.2695C96.7753 22.593 96.7172 23.1518 96.0776 25.8283C95.6706 27.5636 95.3509 29.1224 95.3509 29.2695C95.3509 29.4165 96.2811 29.5342 97.3858 29.5342C98.8102 29.5342 99.4207 29.4165 99.4207 29.1518C99.4207 28.9754 99.5079 28.5048 99.5951 28.1224C99.7405 27.593 99.6533 27.4754 99.1591 27.4754C98.4323 27.4754 98.4323 27.5342 98.9847 25.1812C99.6823 22.2401 99.6242 21.0048 98.8684 20.3577C97.9963 19.6518 97.066 19.6812 95.6125 20.4459C94.9439 20.7695 94.3625 21.0048 94.3043 20.9459C94.2752 20.8871 94.4787 19.8577 94.7694 18.6518C95.0892 17.4459 95.3509 16.2695 95.3509 16.0636C95.3509 15.8283 94.7404 15.7107 93.3159 15.7107C91.8915 15.7107 91.281 15.8283 91.281 16.0636Z" fill="#133653"/>
<path d="M119.246 16.6518C119.043 17.5048 119.072 17.6518 119.624 17.7695L120.264 17.9165L119.217 22.6224C118.316 26.6224 118.084 27.3283 117.589 27.4165C116.834 27.5636 116.688 27.7401 116.456 28.7107L116.281 29.5342H119.334C121.572 29.5342 122.386 29.4459 122.386 29.1518C122.386 28.9754 122.473 28.5048 122.56 28.1224C122.706 27.593 122.619 27.4754 122.095 27.4754C121.398 27.4754 121.398 27.1812 122.124 24.4754C122.386 23.4459 122.502 23.3577 123.404 23.3577C124.508 23.3577 124.363 23.0636 125.468 27.5342L125.933 29.5342H127.619C129.101 29.5342 129.305 29.4754 129.479 28.8577C129.77 27.7695 129.683 27.5342 129.014 27.4165C128.52 27.3577 128.287 26.9459 127.851 25.4165C127.212 23.093 127.212 23.0636 127.793 23.0636C128.055 23.0636 128.694 22.6224 129.247 22.0636C130.148 21.1518 130.235 20.8871 130.235 19.4165C130.235 16.4459 128.84 15.7107 123.055 15.7107H119.508L119.246 16.6518ZM126.456 18.3577C127.241 19.1518 127.183 20.0048 126.311 20.8577C125.758 21.4459 125.322 21.593 124.13 21.593C123.316 21.593 122.706 21.5048 122.764 21.3577C122.851 21.2401 123.055 20.3871 123.258 19.4459L123.578 17.7695H124.741C125.497 17.7695 126.078 17.9754 126.456 18.3577Z" fill="#133653"/>
<path d="M70.9025 20.0342C68.8675 20.5636 68.7513 20.6812 69.478 21.4459C70.0594 22.0636 70.1466 22.093 71.2804 21.6812C72.9374 21.1224 74.1293 21.593 74.1293 22.7989V23.6518H72.1816C69.9141 23.6518 68.3733 24.2695 67.821 25.4165C66.8035 27.4459 67.9954 29.5342 70.1176 29.5342C70.7571 29.5342 71.542 29.3871 71.8909 29.2107C72.356 28.9459 72.5304 28.9459 72.6176 29.2107C72.6758 29.4165 73.5188 29.5342 74.827 29.5342H76.9491L77.2398 28.5048C77.5596 27.5048 77.5305 27.4754 76.7456 27.4754H75.9607L76.5131 25.0636C77.1235 22.2989 77.0073 21.1812 75.9607 20.5048C74.8851 19.7695 72.6758 19.593 70.9025 20.0342ZM73.5479 25.8577C73.5479 27.0048 72.5595 27.8283 71.2804 27.7107C70.3501 27.6224 70.2048 27.5048 70.1176 26.8283C70.0013 25.8283 70.9606 25.1224 72.4432 25.1224C73.4316 25.1224 73.5479 25.2107 73.5479 25.8577Z" fill="#133653"/>
<path d="M105.817 19.8284C102.706 20.3872 100.904 23.2696 101.485 26.7108C101.98 29.7108 106.137 30.7696 108.84 28.6225C109.799 27.8578 109.799 27.6225 108.724 27.1813C107.968 26.8578 107.794 26.9166 107.096 27.4461C106.66 27.799 106.078 28.0637 105.759 28.0637C104.945 28.0637 103.724 26.7108 103.84 25.9166C103.927 25.299 104.073 25.2696 106.398 25.2402C111.224 25.1519 110.759 25.2696 110.759 23.9166C110.759 21.0049 108.695 19.3284 105.817 19.8284ZM107.794 21.946C107.997 22.1519 108.142 22.6519 108.142 23.0931C108.142 23.8578 108.113 23.8872 106.34 23.8284C105.352 23.8284 104.509 23.6519 104.451 23.4755C104.392 23.299 104.625 22.799 104.945 22.3872C105.613 21.5343 107.154 21.299 107.794 21.946Z" fill="#133653"/>
<path d="M135.294 19.8283C134.48 19.9459 133.52 20.2106 133.171 20.4165L132.503 20.7695L133.142 21.4459C133.753 22.093 133.811 22.093 134.887 21.6812C136.311 21.093 137.648 21.6224 137.648 22.7695C137.648 23.4754 137.561 23.5048 135.468 23.6518C132.154 23.8871 131.136 24.6518 131.107 26.9459C131.107 28.093 131.224 28.4165 131.863 28.9165C132.706 29.593 134.102 29.7107 135.381 29.2107C135.933 29.0048 136.224 29.0048 136.282 29.2107C136.34 29.4165 137.241 29.5342 138.404 29.5342C140.294 29.5342 140.439 29.4754 140.701 28.7695C141.137 27.6518 141.079 27.4754 140.265 27.4754C139.422 27.4754 139.422 27.5342 139.974 25.2695C140.875 21.4165 140.323 20.2989 137.212 19.7106C136.98 19.6518 136.108 19.7106 135.294 19.8283ZM137.067 25.4165C137.387 25.9459 136.515 27.2695 135.584 27.6518C134.828 27.9754 134.567 27.9459 134.044 27.593C133.288 27.0342 133.259 26.4754 134.014 25.7106C134.625 25.093 136.747 24.8871 137.067 25.4165Z" fill="#133653"/>
<path d="M170.934 19.8284C167.823 20.3872 166.021 23.2696 166.603 26.7108C167.097 29.7108 171.254 30.7696 173.957 28.6225C174.917 27.8578 174.917 27.6225 173.841 27.1813C173.085 26.8578 172.911 26.9166 172.213 27.4461C171.777 27.799 171.196 28.0637 170.876 28.0637C170.062 28.0637 168.841 26.7108 168.957 25.9166C169.044 25.299 169.19 25.2696 171.515 25.2402C176.341 25.1519 175.876 25.2696 175.876 23.9166C175.876 21.0049 173.812 19.3284 170.934 19.8284ZM173.143 22.446C173.725 23.6225 173.405 23.8872 171.457 23.8284C170.469 23.8284 169.626 23.6519 169.568 23.4755C169.51 23.299 169.742 22.799 170.091 22.3578C170.905 21.299 172.62 21.3578 173.143 22.446Z" fill="#133653"/>
<path d="M56.7742 20.0929C56.5998 20.1811 56.3963 20.6223 56.28 21.0634C56.1347 21.7693 56.1928 21.887 56.687 21.887C57.0068 21.887 57.2684 22.0634 57.2684 22.2987C57.2684 22.5046 56.8033 24.6517 56.2509 27.0634C55.6986 29.4752 55.2335 31.534 55.2335 31.6517C55.2335 31.7987 54.9137 31.887 54.5358 31.887C53.8381 31.887 53.4893 32.3576 53.4893 33.387C53.4893 33.887 53.7218 33.9458 56.2509 33.9458H58.9836L59.2452 32.9752C59.4778 32.0929 59.4487 32.034 58.6929 31.9458C57.8498 31.8576 57.8498 31.9458 58.4894 29.4458L58.751 28.3282L59.4778 28.9164C61.8034 30.7693 65.0011 29.2987 66.1058 25.9164C66.6872 24.1223 66.6872 22.9752 66.1058 21.7105C65.2337 19.887 63.4604 19.387 61.5418 20.4164C60.6406 20.9164 60.4662 20.9164 60.4662 20.5634C60.4662 20.2399 60.1173 20.1223 59.2452 20.0929C58.5475 20.0929 57.7917 20.034 57.53 19.9752C57.2684 19.9458 56.9196 19.9752 56.7742 20.0929ZM63.3151 22.7105C63.8093 23.3576 63.7511 24.7987 63.1406 26.0046C62.2104 27.887 60.4371 28.1223 59.6522 26.4752C59.3033 25.7693 59.3033 25.4752 59.7394 24.3576C60.5824 22.1517 62.2395 21.3576 63.3151 22.7105Z" fill="#133653"/>
<path d="M82.269 20.2991C79.8853 21.3579 78.8969 23.3285 79.0422 26.7991C79.1004 27.8285 80.8737 29.4461 82.2109 29.6814C83.7516 29.9461 85.4959 29.4167 86.6005 28.3873C87.7052 27.3285 87.7343 27.0638 86.6587 26.5932C85.9028 26.2991 85.6994 26.3285 84.9435 26.8873C83.1702 28.2108 81.3969 27.0049 81.8039 24.7402C82.24 22.4167 84.304 21.2991 85.6412 22.6226C86.0773 23.0638 86.6878 23.3579 87.211 23.3579C87.9378 23.3579 88.0831 23.2108 88.3448 22.2402C88.5192 21.652 88.6645 20.8579 88.6645 20.5344C88.6645 19.9461 88.5773 19.9167 87.618 20.1226C87.0075 20.2697 86.2517 20.2402 85.8447 20.0932C84.8272 19.7108 83.4319 19.7991 82.269 20.2991Z" fill="#133653"/>
<path d="M148.695 20.4165C147.329 21.1224 147.271 21.1224 147.504 20.5636C147.62 20.1812 147.3 20.1224 145.498 20.1224C143.812 20.1224 143.317 20.2106 143.317 20.5342C143.317 20.7695 143.23 21.1518 143.143 21.4165C142.998 21.7695 143.143 21.8871 143.753 21.8871C144.277 21.8871 144.48 22.0048 144.393 22.2401C144.335 22.4459 144.044 23.7106 143.753 25.0342C143.346 27.0048 143.143 27.4754 142.707 27.4754C142.358 27.4754 142.096 27.7989 141.922 28.4165L141.689 29.3871L144.131 29.4754C145.498 29.5342 146.631 29.5342 146.66 29.4754C146.719 29.4165 146.835 28.9459 146.951 28.4165C147.126 27.593 147.067 27.4754 146.515 27.4754C146.079 27.4754 145.934 27.3283 146.021 27.0636C146.108 26.8283 146.341 25.8283 146.544 24.8577C146.864 23.1518 146.98 23.0048 148.056 22.4459C149.073 21.9165 149.248 21.8871 149.626 22.2695C150.033 22.6518 149.975 23.093 149.306 25.9165C148.899 27.6812 148.55 29.2107 148.55 29.3283C148.55 29.4459 149.451 29.5342 150.556 29.5342C152.387 29.5342 152.562 29.4754 152.736 28.8577C153.027 27.7695 152.94 27.4754 152.329 27.4754C151.632 27.4754 151.632 27.7695 152.358 24.6518C152.678 23.2401 152.882 21.7989 152.794 21.4165C152.387 19.7695 150.73 19.3577 148.695 20.4165Z" fill="#133653"/>
<path d="M157.271 20.4458C155.701 21.3576 154.858 22.887 154.713 25.0635C154.567 27.2693 155.004 28.5046 156.137 29.0929C157.271 29.6811 158.405 29.6517 159.539 28.9458C160.033 28.6223 160.469 28.5046 160.469 28.6517C160.469 29.387 159.597 30.9752 158.986 31.4164C158.143 32.0046 156.137 32.034 154.8 31.4752C153.841 31.0635 153.812 31.0635 153.521 31.9458C153.347 32.4458 153.201 32.9458 153.201 33.0635C153.201 33.534 155.876 34.0046 157.794 33.887C159.451 33.7988 160.004 33.6223 160.876 32.9752C162.329 31.8576 162.853 30.6223 163.928 25.9164C164.742 22.4752 164.946 21.887 165.44 21.887C165.731 21.887 165.992 21.7105 165.992 21.5046C165.992 21.3282 166.079 20.8576 166.167 20.4752C166.341 19.8576 166.283 19.8282 164.422 19.8282C162.62 19.8282 162.504 19.8576 162.329 20.5635C162.242 20.9752 162.097 21.2988 162.039 21.2988C161.98 21.2988 161.632 20.9752 161.225 20.5635C160.323 19.6517 158.725 19.5929 157.271 20.4458ZM161.137 22.8282C161.69 23.5929 161.719 23.7399 161.312 25.0046C160.789 26.6811 159.713 27.6517 158.608 27.3576C156.98 26.9458 156.893 24.4458 158.434 22.7693C159.451 21.6517 160.294 21.6811 161.137 22.8282Z" fill="#133653"/>
<path d="M180.382 20.0636C178.637 20.1518 178.201 20.4165 178.201 21.3577C178.201 21.7107 178.434 21.8871 178.812 21.8871C179.19 21.8871 179.364 22.0342 179.277 22.2401C179.219 22.4459 178.928 23.7107 178.637 25.0342C178.172 27.2401 178.056 27.4754 177.446 27.4754C176.951 27.4754 176.748 27.6518 176.748 28.0342C176.748 28.3577 176.661 28.7989 176.573 29.0636C176.428 29.4754 176.748 29.5342 179.19 29.5342C181.225 29.5342 181.981 29.4459 181.981 29.1518C181.981 28.9754 182.068 28.5048 182.155 28.1224C182.3 27.5636 182.213 27.4754 181.574 27.4754C180.876 27.4754 180.818 27.3871 180.992 26.6518C181.632 23.6518 182.417 22.5636 184.045 22.2989C185.324 22.093 185.324 22.093 185.614 20.7695C185.789 19.8871 185.76 19.8283 185.033 19.8283C183.957 19.8283 183.26 20.2695 182.417 21.5342C181.632 22.7107 181.544 22.593 181.981 21.0342C182.126 20.4754 182.242 20.0048 182.184 20.0048C182.155 19.9754 181.341 20.0048 180.382 20.0636Z" fill="#133653"/>
</svg>
