<svg viewBox="0 0 24 24" fill="none" xmlns="http://www.w3.org/2000/svg" width="1em" height="1em">
  <g fill-rule="evenodd" clip-rule="evenodd">
    <path d="M12.89 4.646c-.167-.466-5.907-2.744-5.98-2.494-1.055.28-1.484 1.52-2.209 2.306l-1.61-.094c-.71.931-1.082 1.883-.828 2.872.909 1.257 1.964 2.327 2.622 3.907.052.744 3.156.078 3.822-.07-.91.664-1.7 1.694-1.36 4.66.31 1.392.522 2.946 3.276 4.521.363.207 1.113.447 1.577.62.444.209.962.294 2.426-.163.847-.372 1.761-.597 2.59-.969l-.996.048c-1.372.03-2.43.135-2.757-.256L12.2 17.309l.736-1.46c1.019.107 1.357.95 2.254 1.272l1.059-.8c3.073 1.851 4.296-1.174 4.646-3.531-.037-.959-2.034.3-1.912-.148.046-1.03-.777-2.379-1.308-3.43l.615-2.43c.28-.254-1.293-2.958-2.576-3.295-1.126-.296-2.824 1.16-2.824 1.16z" fill="#FDEE21"/>
    <path d="M17.947 10.075a15.6 15.6 0 00-.008-.262c.513.8.888 1.641 1.012 2.553l-.273.621c-.075-.03-.158-.059-.242-.089a3.576 3.576 0 01-.497-.202c.12-.152.192-.31.175-.424-.01-.063-.03-.098-.12-.147.202.044.418.043.635.041l.01-.005c.071-.034.143-.068.036-.548l-.011-.024a7.527 7.527 0 00-.3-.588l-.598-.223a.968.968 0 01.043-.014c.08-.023.16-.047.165-.175-.017-.134-.022-.324-.027-.514zm2.597 2.462zm-1.489.334c.332.141.79.1 1.425-.234.037-.027.073-.037.093-.033a.515.515 0 00-.029-.067c1.19.398-1.117 6.468-4.374 3.938l-.854.616c-.766-.345-.733-.452-.7-.56a.412.412 0 00.009-.031l.537-1.373.257.217c1.252 1.058 2.773 2.344 4.28-.13a4.394 4.394 0 00.85-2.165l.016-.07a.688.688 0 00.019-.339.282.282 0 01-.09.082c-.833.763-1.232.382-1.439.15zm0 0zm-3.788-.748a1.097 1.097 0 00-.14-.027l1.507-.265c.006.035.015.07.023.105.03.122.06.244.017.389l.316.2c-.103.01-.207.019-.31.027-.568.044-1.137.089-1.518.538l.235-.524c-.056-.142-.083-.404-.063-.428.007 0 .01 0 .006-.001-.002-.002-.004-.001-.006 0a1.335 1.335 0 01-.067-.014zm.97-1.604c-.485.151-.949.4-1.26.927.22-.808.278-.837.347-.872a.497.497 0 00.016-.008c.247-.113.461-.09.675-.066.074.008.147.016.222.019zm-1.555 4.711c.135-.132.676-.315.872-.329l-.601-.083-.271.412zm0 0a.1.1 0 00-.03.046l.03-.046z" fill="#C8C037"/>
    <path d="M15.586 9.08zm0 0c-.17-.249-.34-.51-.512-.775-.566-.872-1.156-1.782-1.897-2.415-2.33-1.073-4.634-1.87-7.335-2.596l.862-1.132c2.866.668 5.558 1.786 7.97 3.628.408 1.054.68 2.108.912 3.29zm-1.062.693c-.991-1.436-2.387-1.975-3.96-2.034.105-.035.21-.065.315-.094.21-.059.42-.118.63-.221.078-.083.053-.229.024-.377-1.056-.281-1.84-.61-2.63-.939a36.235 36.235 0 00-1.05-.426l3.266.8c1.819.07 2.01.461 2.799 2.081.168.345.363.745.607 1.21zm-.875 10.949c-.472.532-1.413.174-2.329-.175-.22-.083-.44-.167-.65-.237-2.759-1.79-3.298-3.477-3.335-5.13-.142-2.37.57-3.747 1.472-4.073-.597 1.174-.875 3.282-.598 4.849.04.153.072.325.106.509.163.86.373 1.972 1.55 2.62.401.23.51.431.62.632.08.15.162.3.364.46.519.413 1.964.805 2.8.545zm3.415-13.53s-.41-.941-.61-1.3c-.152-.172-.28-.392-.415-.626-.28-.483-.595-1.029-1.235-1.34.065.018.126.028.187.037.222.035.452.07.933.516l.967 1.872.174.841zm.537 1.417l-.025.214.904-2.234c-1.145-2.28-1.995-2.859-2.809-3.074.026.033.05.068.076.105.05.071.101.146.165.206.427.558.854 1.148 1.28 1.735l.452.621c.19.474.054 1.613-.043 2.427z" fill="#FCF6A0"/>
    <path d="M15.144 15.108c.256.39.644.77 1.105 1.137l-.208.181-.184-.235-.008.006c-.077.058-.154.115-.252.328-.05.087-.114.143-.165.149-.227.03-.477-.024-.748-.212.027.077.153.163.278.248.052.035.103.07.148.105-.151.008-.375-.007-.437-.095-.23-.327-.196-.43-.15-.505l.123-.163c.207-.272.429-.562.498-.944zM5.893 2.712c.272-.285.525-.535.787-.71 1.566.125 3.276.752 3.551 1.014.574.267 1.108.55 1.553.793a8.77 8.77 0 001.176.707c.167-.108.321-.253.479-.4.162-.153.328-.309.514-.43.234-.153.526-.224.866-.296.28-.054 1.092.036 1.298.129.738.34 1.14.882 1.613 1.575.207.322.364.627.496.9.032.066.066.132.1.197.108.204.212.402.209.559.003.075-.032.138-.073.214a1.426 1.426 0 00-.07.14l-.053.147c-.194.542-.362 1.013-.462 1.647a1.749 1.749 0 01-.023.125c-.015.074-.032.162-.041.258a.466.466 0 00.01.086l-.02.23c-.01.08-.008.147-.006.23 0 .05.002.106.001.173 0 0-.29-.662-.222-1.19-.001-.13.339-1.094.399-1.235.067-.21.114-.384.175-.7.06-.314.007-.486-.124-.748-.546-1.068-1.453-2.08-1.8-2.357a.812.812 0 00-.183-.062 1.49 1.49 0 01-.247-.082c-.09-.04.114.2.114.2-.04.039-.123.005-.246-.046-.267-.11-.727-.3-1.379 0-.176.067-.302.17-.427.272a4.151 4.151 0 00-.488.455l-.087.092c.007.044.1.108.274.21.458.27 1.205.853 1.384 1.083.031.034.105.367.199.797.097.442.216.985.335 1.41.074.26.632.555.632.555-.125.015-.427-.081-.554-.13-.02.104.102.684.102.684s-.127-.281-.272-.974c-.202-.682-.423-1.388-.727-2.042-.298-.425-1.319-1.211-1.657-1.325-.21-.122-.427-.234-.653-.35-.187-.096-.38-.196-.581-.307-.13-.071-.264-.147-.403-.224-1.032-.579-2.337-1.31-4.274-1.623-.203.022-.312.072-.513.163l-.114.051c-.227.219-.393.447-.56.676-.283.388-.568.778-1.153 1.13.027.074.084.117.176.13.48.1 1.177.506 1.875.913.202.118.404.235.6.345 0 0-1.167-.552-2.05-.888-.31-.117-.61-.166-.787-.195a8.181 8.181 0 01-.064-.01c-.354-.07-.809-.08-1.268-.088-.442.46-.702.92-.862 1.484v.003l-.002.003c-.044.488.015.72.06.898.011.042.021.082.029.12.159.692.728 1.343 1.393 2.018l.072.073c.162.163.323.325.463.518l.004.004.003.004c.134.2.223.485.313.775.096.31.195.624.352.848.022.021.197.021.423.02.264 0 .598 0 .84.033.194.027.394.026.597.001.405-.104.719-.204 1.023-.301.164-.052.325-.104.496-.155.216-.119.977-.403 1.204-.456v.007c.822-.28 1.597-.446 2.362-.61l.079-.018c-.174.707-.261 1.144-.088 2.52.107.425.89.749 1.479.9l-.023.042c-.284.495-.72 1.256.312 2.09.104.16.192.335.28.509l.036.07c.027.048.052.098.077.15l.001.002c.343.939 1.182 1.003 1.888.285l.208-.182c.089.047.177.097.266.149.46.265.962.555 1.802.405.822-.127 1.401-1.042 1.919-2.06a5.96 5.96 0 00.46-1.76c.003-.038-.023-.533-.28-.512-.198.015-.289.075-.391.144-.096.064-.202.135-.417.182a4.486 4.486 0 00-.375-.001c-.13.003-.232.006-.255-.009l-.024.013c-.125.35-.259.703-.394 1.03-.136.163-.19.217-.243.272a5.577 5.577 0 00-.424.493c.05-.08.106-.158.161-.236.114-.162.228-.324.3-.494.018-.043.039-.088.06-.132.057-.125.115-.25.145-.36-.127-.065-.39-.07-.425-.047-.286.173-.415.352-.545.53-.065.09-.13.18-.213.268.059-.097.115-.196.172-.296.118-.208.236-.416.38-.599.016-.023.093-.034.171-.045.038-.005.075-.01.107-.017l-.179-.033c-.128-.024-.257-.048-.272-.046-.194.048-.328.182-.462.314-.06.06-.118.118-.182.169l.083-.124c.122-.184.243-.367.4-.524.02-.022.539.024.808.134l.005.11.153.062.113-.288-.113-.018a16.263 16.263 0 00-.438-.177l-.177-.07.115-.006.02-.07c.03-.114.062-.229.118-.26.054-.088-.019-.115-.092-.142-.036-.013-.071-.026-.092-.046l.213.053h.056c.246.002.512.003.524.274l.087-.044c-.002-.044-.001-.09 0-.137 0-.215.003-.45-.123-.656a9.761 9.761 0 01-.366-.71l-.34-.099h.293c-.181-.384-.367-.815-.43-1.075-.034-.143-.125-.157-.125-.157l.02-.23s.231.216.325.298c.161.153.274.477.341.668.025.07.044.123.056.142l.143.274c.152.288.327.62.469.939.023.045.075.306.027.846a.606.606 0 01-.126.01l-.075.004c.396.047.634-.067.916-.201.163-.078.341-.163.572-.227.177-.039.383.242.54.514.112.133-.286 2.475-1.544 3.96-.989.846-2.413.644-3.287-.012l-.038.055c-.281.407-.573.83-1.737.477-.274-.184-.367-.422-.464-.672-.032-.082-.065-.165-.104-.248-.205.05-.359.032-.647-.003a26.497 26.497 0 00-.15-.017c-.129.002-.184.009-.281.207l.32.49c.019.021.037.046.058.075.112.153.29.396.914.667.08.04.283.032.323.025l-.07.023c-.296.098-.686-.04-.82-.088a.19.19 0 00-.05-.015c-.39-.125-.685-.37-.917-.662.003.031.004.063.006.094.014.233.03.48.109.704.039.112.068.176.097.238.02.043.04.086.062.145.018.025.073.042.148.065.05.016.109.034.172.06.061.022.264.096.383.11.354.043.755-.005.755-.005-.23.242-.907.204-1.212.177.124.24.245.515.324.715l.002.006c.049.124.049.124.734.2-.21.018-.372.062-.48.092-.06.016-.104.028-.13.029-.054.001.03.173.053.203.117.117.291.141.462.166l.087.013c.85.085 2.702-.071 2.702-.071s-2.087.75-3.112 1.066a2.96 2.96 0 01-1.16.082c-1.896-.434-3.305-1.503-4.042-2.418l-.003-.002h.001a4.418 4.418 0 01-.188-.251 5.55 5.55 0 01-.568-1.117c-.24-.672-.4-1.259-.476-1.967a13.153 13.153 0 01-.005-.064l-.01-.038.007.005c-.119-1.542.102-2.536.864-3.65.04-.063.11-.118.176-.17.072-.056.14-.109.155-.162-.23.091-.485.191-.77.263-.247.087-.533.14-.795.19l-.145.027c-.215.023-.443.029-.609.027-.125-.011-.255-.019-.384-.026-.267-.015-.53-.03-.74-.076-.132-.03-.133-.032-.174-.116a2.734 2.734 0 00-.012-.023c-.059-.136-.116-.295-.176-.459-.089-.246-.182-.504-.293-.715-.244-.543-.586-.913-1.18-1.505-.667-.715-1.363-1.642-1.09-2.768.132-.441.451-1.142.702-1.512.23-.28.465-.369.712-.232.217.028.326.019.435.01l.098-.008c.324-.019.582-.149.673-.23.298-.223.529-.497.777-.792.135-.16.275-.327.434-.494zm1.892 14.355c.21.502.473 1.103.747 1.42l.092.095c.855.428 2.254 1.058 4.272.745-.154-.235-.344-.53-.503-.81-1.584.038-3.45-.74-4.608-1.45zm4.3.586c-2.678-.583-3.449-1.286-4.189-1.96a9.92 9.92 0 00-.53-.46c-.073-.62-.082-1.296.057-1.96.397 1.1 2.289 3.152 4.828 3.463l-.006.014c-.087.216-.16.586-.155.894a.108.108 0 00-.005.009zm.335-1.34c-.891-.449-1.627-.99-2.367-1.533l-.018-.013c-1.2-.894-1.498-1.957-1.71-3.348a.288.288 0 01.096-.087c.387-.267.808-.45 1.26-.551.393 1.506 1.201 3.021 2.006 4.404l.127.167c.216.29.337.45.734.656a6.418 6.418 0 00-.128.305zm.824 3.552c-.713.332-1.466.336-2.197.34-.133 0-.266.001-.397.004.524.304 1.075.53 1.638.62.317.055 1.85.263 1.172-.64a.338.338 0 00-.026-.035c-.044-.055-.131-.164-.19-.29zm1.136-2.23l-.006.003.006-.002zM16.817 5.85c-.034-.194-.757-1.36-.89-1.373l.005.028c.037.2.074.402.222.654.333.375.453.64.5.757.162.426.292.852.41 1.278a6.336 6.336 0 00-.136-.774c-.043-.195-.085-.387-.111-.57zm-3.053 2.526c.134.228.259.44.39.544-.086-.191-.163-.41-.243-.637-.198-.565-.414-1.182-.831-1.56-.56-.183-1.322-.193-2.085-.202-.228-.003-.457-.006-.68-.014.305.08.664.13 1.026.182.627.09 1.263.18 1.644.42.009.033-.015.056-.052.073a3.165 3.165 0 01-.092-.015c-.118-.02-.236-.04-.36-.01-.156.052-.301.134-.446.216a5.462 5.462 0 01-.206.113c.41-.085.616-.044.852.004.109.021.224.044.368.057.294.114.515.49.715.83zm1.561 2.165c.31-.07.63-.065.94-.026-.603.088-.753.114-1.13.54.016-.05.028-.099.04-.15.03-.119.06-.242.15-.364zm5.179 2.168c-.042.034-.074.067-.107.1-.103.106-.206.211-.595.332-.373.09-.583-.062-.759-.268a.912.912 0 01.164.07c.16.081.314.159.858-.017l.439-.217zm-4.943 2.194c-.069-.024-.678-.104-.678-.085-.234.17-.27.333-.265.474l.03-.03c.36-.361.36-.362.913-.359zm-.031-2.836c.008-.042-.432.024-.432.024.577-.38.962-.484 1.628-.306-.09.023-.176.046-.265.076.036.01.167.491.064.507-.029.004.437.135.437.135-.126.009-.25.013-.375.018-.424.015-.84.03-1.241.235l.242-.202c.002.002.004.001.005-.004l-.005.004c-.02-.022-.087-.346-.058-.487z" fill="#1B2329"/>
    <path d="M15.637 12.207c.054-.065.303-.079.353.021a.4.4 0 01.014.215.42.42 0 00-.313.097c-.056.057-.097-.28-.054-.333zm2.798.286a.438.438 0 01-.057.238c-.037.018-.283.002-.293-.05-.02-.062.03-.248.086-.282 0 0 .231-.025.264.094z" fill="#fff"/>
  </g>
</svg>
