<svg width="20" height="20" viewBox="0 0 20 20" fill="none" xmlns="http://www.w3.org/2000/svg">
<path d="M4.79102 17.5013C3.91602 17.5013 3.17643 17.1992 2.57227 16.5951C1.9681 15.9909 1.66602 15.2513 1.66602 14.3763C1.66602 13.5013 1.9681 12.7617 2.57227 12.1576C3.17643 11.5534 3.91602 11.2513 4.79102 11.2513C5.66602 11.2513 6.4056 11.5534 7.00977 12.1576C7.61393 12.7617 7.91602 13.5013 7.91602 14.3763C7.91602 15.2513 7.61393 15.9909 7.00977 16.5951C6.4056 17.1992 5.66602 17.5013 4.79102 17.5013ZM15.2285 17.5013C14.3535 17.5013 13.6139 17.1992 13.0098 16.5951C12.4056 15.9909 12.1035 15.2513 12.1035 14.3763C12.1035 13.5013 12.4056 12.7617 13.0098 12.1576C13.6139 11.5534 14.3535 11.2513 15.2285 11.2513C16.1035 11.2513 16.8431 11.5534 17.4473 12.1576C18.0514 12.7617 18.3535 13.5013 18.3535 14.3763C18.3535 15.2513 18.0514 15.9909 17.4473 16.5951C16.8431 17.1992 16.1035 17.5013 15.2285 17.5013ZM4.78916 16.2513C5.30429 16.2513 5.74588 16.0679 6.11393 15.7011C6.48199 15.3342 6.66602 14.8933 6.66602 14.3782C6.66602 13.863 6.48261 13.4214 6.11579 13.0534C5.74895 12.6853 5.30798 12.5013 4.79287 12.5013C4.27775 12.5013 3.83615 12.6847 3.4681 13.0515C3.10004 13.4184 2.91602 13.8593 2.91602 14.3744C2.91602 14.8896 3.09943 15.3312 3.46624 15.6992C3.83308 16.0673 4.27405 16.2513 4.78916 16.2513ZM15.2267 16.2513C15.7418 16.2513 16.1834 16.0679 16.5514 15.7011C16.9195 15.3342 17.1035 14.8933 17.1035 14.3782C17.1035 13.863 16.9201 13.4214 16.5533 13.0534C16.1865 12.6853 15.7455 12.5013 15.2304 12.5013C14.7152 12.5013 14.2737 12.6847 13.9056 13.0515C13.5375 13.4184 13.3535 13.8593 13.3535 14.3744C13.3535 14.8896 13.5369 15.3312 13.9037 15.6992C14.2706 16.0673 14.7116 16.2513 15.2267 16.2513ZM10.0202 8.73047C9.14518 8.73047 8.4056 8.42839 7.80143 7.82422C7.19727 7.22005 6.89518 6.48047 6.89518 5.60547C6.89518 4.73047 7.19727 3.99089 7.80143 3.38672C8.4056 2.78255 9.14518 2.48047 10.0202 2.48047C10.8952 2.48047 11.6348 2.78255 12.2389 3.38672C12.8431 3.99089 13.1452 4.73047 13.1452 5.60547C13.1452 6.48047 12.8431 7.22005 12.2389 7.82422C11.6348 8.42839 10.8952 8.73047 10.0202 8.73047ZM10.0183 7.48047C10.5335 7.48047 10.975 7.29706 11.3431 6.93024C11.7112 6.56341 11.8952 6.12243 11.8952 5.60732C11.8952 5.0922 11.7118 4.65061 11.345 4.28255C10.9781 3.9145 10.5371 3.73047 10.022 3.73047C9.50691 3.73047 9.06532 3.91388 8.69727 4.2807C8.32921 4.64753 8.14518 5.0885 8.14518 5.60361C8.14518 6.11874 8.32859 6.56033 8.69541 6.92839C9.06225 7.29644 9.50322 7.48047 10.0183 7.48047Z" fill="black" fill-opacity="0.5"/>
</svg>
