<svg width="32" height="32" viewBox="0 0 32 32" fill="none" xmlns="http://www.w3.org/2000/svg">
<rect width="32" height="32" rx="16" fill="#E6F0F8"/>
<path d="M10.791 23.5013C9.91602 23.5013 9.17643 23.1992 8.57227 22.5951C7.9681 21.9909 7.66602 21.2513 7.66602 20.3763C7.66602 19.5013 7.9681 18.7617 8.57227 18.1576C9.17643 17.5534 9.91602 17.2513 10.791 17.2513C11.666 17.2513 12.4056 17.5534 13.0098 18.1576C13.6139 18.7617 13.916 19.5013 13.916 20.3763C13.916 21.2513 13.6139 21.9909 13.0098 22.5951C12.4056 23.1992 11.666 23.5013 10.791 23.5013ZM21.2285 23.5013C20.3535 23.5013 19.6139 23.1992 19.0098 22.5951C18.4056 21.9909 18.1035 21.2513 18.1035 20.3763C18.1035 19.5013 18.4056 18.7617 19.0098 18.1576C19.6139 17.5534 20.3535 17.2513 21.2285 17.2513C22.1035 17.2513 22.8431 17.5534 23.4473 18.1576C24.0514 18.7617 24.3535 19.5013 24.3535 20.3763C24.3535 21.2513 24.0514 21.9909 23.4473 22.5951C22.8431 23.1992 22.1035 23.5013 21.2285 23.5013ZM10.7892 22.2513C11.3043 22.2513 11.7459 22.0679 12.1139 21.7011C12.482 21.3342 12.666 20.8933 12.666 20.3782C12.666 19.863 12.4826 19.4214 12.1158 19.0534C11.749 18.6853 11.308 18.5013 10.7929 18.5013C10.2777 18.5013 9.83615 18.6847 9.4681 19.0515C9.10004 19.4184 8.91602 19.8593 8.91602 20.3744C8.91602 20.8896 9.09943 21.3312 9.46624 21.6992C9.83308 22.0673 10.2741 22.2513 10.7892 22.2513ZM21.2267 22.2513C21.7418 22.2513 22.1834 22.0679 22.5514 21.7011C22.9195 21.3342 23.1035 20.8933 23.1035 20.3782C23.1035 19.863 22.9201 19.4214 22.5533 19.0534C22.1865 18.6853 21.7455 18.5013 21.2304 18.5013C20.7152 18.5013 20.2737 18.6847 19.9056 19.0515C19.5375 19.4184 19.3535 19.8593 19.3535 20.3744C19.3535 20.8896 19.5369 21.3312 19.9037 21.6992C20.2706 22.0673 20.7116 22.2513 21.2267 22.2513ZM16.0202 14.7305C15.1452 14.7305 14.4056 14.4284 13.8014 13.8242C13.1973 13.2201 12.8952 12.4805 12.8952 11.6055C12.8952 10.7305 13.1973 9.99089 13.8014 9.38672C14.4056 8.78255 15.1452 8.48047 16.0202 8.48047C16.8952 8.48047 17.6348 8.78255 18.2389 9.38672C18.8431 9.99089 19.1452 10.7305 19.1452 11.6055C19.1452 12.4805 18.8431 13.2201 18.2389 13.8242C17.6348 14.4284 16.8952 14.7305 16.0202 14.7305ZM16.0183 13.4805C16.5335 13.4805 16.975 13.2971 17.3431 12.9302C17.7112 12.5634 17.8952 12.1224 17.8952 11.6073C17.8952 11.0922 17.7118 10.6506 17.345 10.2826C16.9781 9.9145 16.5371 9.73047 16.022 9.73047C15.5069 9.73047 15.0653 9.91388 14.6973 10.2807C14.3292 10.6475 14.1452 11.0885 14.1452 11.6036C14.1452 12.1187 14.3286 12.5603 14.6954 12.9284C15.0622 13.2964 15.5032 13.4805 16.0183 13.4805Z" fill="#0B7FAD"/>
</svg>
