<svg xmlns="http://www.w3.org/2000/svg" height="24" viewBox="0 -960 960 960" width="24"><path d="M324.616-184.617q-24.75 0-42.374-17.625-17.625-17.624-17.625-42.374v-99.998h115.384v-110.002q-36.538 3.001-72.269-8.961-35.731-11.961-61.731-38.577v-50.154h-51.385L73.847-673.076q35.231-38.692 83.615-55.961 48.384-17.269 98.538-17.269 32.725 0 63.632 7.461 30.908 7.462 60.369 24.616v-64.231h439.998v493.844q0 41.923-29.038 70.961-29.039 29.038-70.961 29.038H324.616ZM440-344.614h240v59.998q0 17 11.5 28.5t28.5 11.5q17 0 28.5-11.5t11.5-28.5v-433.845H440v44.001l229.999 229.999v42.153h-42.153L510-520.154l-15.308 15.308Q481.846-492 468.461-482.539q-13.384 9.462-28.461 15.462v122.463ZM220.154-612.306h85.845v82.153q16.231 10.308 31.539 14.077 15.308 3.77 30.618 3.77 25.152 0 45.575-8.154 20.423-8.154 39.193-26.924l14.923-14.923-62.923-62.924q-30.547-30.538-68.466-45.808-37.919-15.269-80.458-15.269-24.616 0-47.424 5.308t-42.731 14.385l54.309 54.309Zm399.847 327.69H324.616v40h304.463q-4.924-8.615-7.001-18.739t-2.077-21.261Zm-295.385 40v-40 40Z"/></svg>