<svg width="415" height="419" viewBox="0 0 415 419" fill="none" xmlns="http://www.w3.org/2000/svg">
<path d="M107.719 251.062C101.463 251.062 96.1439 248.871 91.7615 244.489C87.379 240.106 85.1878 234.787 85.1878 228.531V81.212C85.1878 74.956 87.5029 69.513 92.1329 64.8829C96.763 60.2528 102.206 57.9378 108.462 57.9378H179.15L204.9 83.6878H306.538C312.299 83.6878 317.267 85.5489 321.443 89.2711C325.619 92.9932 328.038 97.5695 328.698 103H197.002L171.252 77.25H108.462C107.306 77.25 106.357 77.6214 105.614 78.3643C104.871 79.1072 104.5 80.0564 104.5 81.212V227.788C104.5 228.696 104.727 229.439 105.181 230.017C105.635 230.594 106.233 231.09 106.976 231.502L137.009 131.226H351.477L320.305 235.068C318.836 239.904 316.083 243.779 312.047 246.692C308.012 249.605 303.534 251.062 298.615 251.062H107.719ZM127.204 231.75H301.092L325.381 150.538H151.493L127.204 231.75Z" fill="#CCCCCC"/>
<path d="M48.017 349.636V402H40.7557L14.1392 363.597H13.6534V402H5.75284V349.636H13.0653L39.7074 388.091H40.1932V349.636H48.017ZM75.4709 402.793C71.7891 402.793 68.576 401.949 65.8317 400.261C63.0874 398.574 60.9567 396.213 59.4396 393.179C57.9226 390.145 57.1641 386.599 57.1641 382.543C57.1641 378.469 57.9226 374.906 59.4396 371.855C60.9567 368.804 63.0874 366.435 65.8317 364.747C68.576 363.06 71.7891 362.216 75.4709 362.216C79.1527 362.216 82.3658 363.06 85.1101 364.747C87.8544 366.435 89.9851 368.804 91.5021 371.855C93.0192 374.906 93.7777 378.469 93.7777 382.543C93.7777 386.599 93.0192 390.145 91.5021 393.179C89.9851 396.213 87.8544 398.574 85.1101 400.261C82.3658 401.949 79.1527 402.793 75.4709 402.793ZM75.4965 396.375C77.8828 396.375 79.8601 395.744 81.4283 394.483C82.9964 393.222 84.1555 391.543 84.9055 389.446C85.6726 387.349 86.0561 385.04 86.0561 382.517C86.0561 380.011 85.6726 377.71 84.9055 375.614C84.1555 373.5 82.9964 371.804 81.4283 370.526C79.8601 369.247 77.8828 368.608 75.4965 368.608C73.093 368.608 71.0987 369.247 69.5135 370.526C67.9453 371.804 66.7777 373.5 66.0107 375.614C65.2607 377.71 64.8857 380.011 64.8857 382.517C64.8857 385.04 65.2607 387.349 66.0107 389.446C66.7777 391.543 67.9453 393.222 69.5135 394.483C71.0987 395.744 73.093 396.375 75.4965 396.375ZM150.539 363.392C150.266 360.972 149.141 359.097 147.164 357.767C145.187 356.42 142.698 355.747 139.698 355.747C137.55 355.747 135.692 356.088 134.124 356.77C132.556 357.435 131.337 358.355 130.468 359.531C129.616 360.69 129.19 362.011 129.19 363.494C129.19 364.739 129.479 365.812 130.059 366.716C130.656 367.619 131.431 368.378 132.386 368.991C133.357 369.588 134.397 370.091 135.505 370.5C136.613 370.892 137.678 371.216 138.701 371.472L143.815 372.801C145.485 373.21 147.198 373.764 148.954 374.463C150.71 375.162 152.337 376.082 153.837 377.224C155.337 378.366 156.548 379.781 157.468 381.469C158.406 383.156 158.874 385.176 158.874 387.528C158.874 390.494 158.107 393.128 156.573 395.429C155.056 397.73 152.849 399.545 149.951 400.875C147.07 402.205 143.585 402.869 139.494 402.869C135.573 402.869 132.181 402.247 129.317 401.003C126.454 399.759 124.212 397.994 122.593 395.71C120.974 393.409 120.079 390.682 119.908 387.528H127.835C127.988 389.42 128.602 390.997 129.675 392.259C130.766 393.503 132.156 394.432 133.843 395.045C135.548 395.642 137.414 395.94 139.442 395.94C141.675 395.94 143.661 395.591 145.4 394.892C147.156 394.176 148.536 393.187 149.542 391.926C150.548 390.648 151.05 389.156 151.05 387.452C151.05 385.901 150.607 384.631 149.721 383.642C148.852 382.653 147.667 381.835 146.167 381.188C144.684 380.54 143.005 379.969 141.13 379.474L134.942 377.787C130.749 376.645 127.425 374.966 124.971 372.75C122.533 370.534 121.315 367.602 121.315 363.955C121.315 360.937 122.133 358.304 123.769 356.054C125.406 353.804 127.621 352.057 130.417 350.812C133.212 349.551 136.366 348.92 139.877 348.92C143.423 348.92 146.55 349.543 149.261 350.787C151.988 352.031 154.136 353.744 155.704 355.926C157.272 358.091 158.09 360.58 158.158 363.392H150.539ZM184.628 402.793C180.759 402.793 177.426 401.966 174.631 400.312C171.852 398.642 169.705 396.298 168.188 393.281C166.688 390.247 165.938 386.693 165.938 382.619C165.938 378.597 166.688 375.051 168.188 371.983C169.705 368.915 171.818 366.52 174.528 364.798C177.256 363.077 180.443 362.216 184.091 362.216C186.307 362.216 188.455 362.582 190.534 363.315C192.614 364.048 194.48 365.199 196.134 366.767C197.787 368.335 199.091 370.372 200.045 372.878C201 375.366 201.477 378.392 201.477 381.955V384.665H170.259V378.938H193.986C193.986 376.926 193.577 375.145 192.759 373.594C191.94 372.026 190.79 370.79 189.307 369.886C187.841 368.983 186.119 368.531 184.142 368.531C181.994 368.531 180.119 369.06 178.517 370.116C176.932 371.156 175.705 372.52 174.835 374.207C173.983 375.878 173.557 377.693 173.557 379.653V384.128C173.557 386.753 174.017 388.986 174.938 390.827C175.875 392.668 177.179 394.074 178.849 395.045C180.52 396 182.472 396.477 184.705 396.477C186.153 396.477 187.474 396.273 188.668 395.864C189.861 395.437 190.892 394.807 191.761 393.972C192.631 393.136 193.295 392.105 193.756 390.878L200.991 392.182C200.412 394.312 199.372 396.179 197.872 397.781C196.389 399.366 194.523 400.602 192.273 401.489C190.04 402.358 187.491 402.793 184.628 402.793ZM209.96 402V362.727H217.349V368.966H217.758C218.474 366.852 219.735 365.19 221.542 363.98C223.366 362.753 225.428 362.139 227.729 362.139C228.207 362.139 228.769 362.156 229.417 362.19C230.082 362.224 230.602 362.267 230.977 362.318V369.631C230.67 369.545 230.124 369.452 229.34 369.349C228.556 369.23 227.772 369.17 226.988 369.17C225.181 369.17 223.57 369.554 222.156 370.321C220.758 371.071 219.65 372.119 218.832 373.466C218.013 374.795 217.604 376.312 217.604 378.017V402H209.96ZM272.384 362.727L258.143 402H249.961L235.694 362.727H243.901L253.847 392.949H254.256L264.177 362.727H272.384ZM279.569 402V362.727H287.214V402H279.569ZM283.43 356.668C282.1 356.668 280.958 356.224 280.004 355.338C279.066 354.435 278.597 353.361 278.597 352.116C278.597 350.855 279.066 349.781 280.004 348.895C280.958 347.991 282.1 347.54 283.43 347.54C284.759 347.54 285.893 347.991 286.83 348.895C287.785 349.781 288.262 350.855 288.262 352.116C288.262 353.361 287.785 354.435 286.83 355.338C285.893 356.224 284.759 356.668 283.43 356.668ZM314.041 402.793C310.24 402.793 306.967 401.932 304.223 400.21C301.496 398.472 299.399 396.077 297.933 393.026C296.467 389.974 295.734 386.48 295.734 382.543C295.734 378.554 296.484 375.034 297.984 371.983C299.484 368.915 301.598 366.52 304.325 364.798C307.053 363.077 310.266 362.216 313.964 362.216C316.947 362.216 319.607 362.77 321.942 363.878C324.277 364.969 326.161 366.503 327.592 368.48C329.041 370.457 329.902 372.767 330.175 375.409H322.734C322.325 373.568 321.388 371.983 319.922 370.653C318.473 369.324 316.53 368.659 314.092 368.659C311.962 368.659 310.095 369.222 308.493 370.347C306.908 371.455 305.672 373.04 304.786 375.102C303.899 377.148 303.456 379.568 303.456 382.364C303.456 385.227 303.891 387.699 304.76 389.778C305.629 391.858 306.857 393.469 308.442 394.611C310.044 395.753 311.928 396.324 314.092 396.324C315.541 396.324 316.854 396.06 318.03 395.531C319.223 394.986 320.22 394.21 321.021 393.205C321.839 392.199 322.411 390.989 322.734 389.574H330.175C329.902 392.114 329.075 394.381 327.695 396.375C326.314 398.369 324.464 399.937 322.146 401.08C319.845 402.222 317.143 402.793 314.041 402.793ZM355.276 402.793C351.407 402.793 348.075 401.966 345.279 400.312C342.501 398.642 340.353 396.298 338.836 393.281C337.336 390.247 336.586 386.693 336.586 382.619C336.586 378.597 337.336 375.051 338.836 371.983C340.353 368.915 342.467 366.52 345.177 364.798C347.904 363.077 351.092 362.216 354.739 362.216C356.955 362.216 359.103 362.582 361.183 363.315C363.262 364.048 365.129 365.199 366.782 366.767C368.435 368.335 369.739 370.372 370.694 372.878C371.648 375.366 372.126 378.392 372.126 381.955V384.665H340.907V378.938H364.634C364.634 376.926 364.225 375.145 363.407 373.594C362.589 372.026 361.438 370.79 359.955 369.886C358.489 368.983 356.768 368.531 354.79 368.531C352.643 368.531 350.768 369.06 349.165 370.116C347.58 371.156 346.353 372.52 345.484 374.207C344.631 375.878 344.205 377.693 344.205 379.653V384.128C344.205 386.753 344.665 388.986 345.586 390.827C346.523 392.668 347.827 394.074 349.498 395.045C351.168 396 353.12 396.477 355.353 396.477C356.802 396.477 358.123 396.273 359.316 395.864C360.509 395.437 361.54 394.807 362.41 393.972C363.279 393.136 363.944 392.105 364.404 390.878L371.64 392.182C371.06 394.312 370.021 396.179 368.521 397.781C367.038 399.366 365.171 400.602 362.921 401.489C360.688 402.358 358.14 402.793 355.276 402.793ZM410.037 372.315L403.108 373.543C402.818 372.656 402.358 371.812 401.727 371.011C401.114 370.21 400.278 369.554 399.222 369.043C398.165 368.531 396.844 368.276 395.259 368.276C393.094 368.276 391.287 368.761 389.838 369.733C388.389 370.687 387.665 371.923 387.665 373.44C387.665 374.753 388.151 375.81 389.122 376.611C390.094 377.412 391.662 378.068 393.827 378.58L400.065 380.011C403.679 380.847 406.372 382.134 408.145 383.872C409.918 385.611 410.804 387.869 410.804 390.648C410.804 393 410.122 395.097 408.759 396.938C407.412 398.761 405.528 400.193 403.108 401.233C400.705 402.273 397.918 402.793 394.747 402.793C390.349 402.793 386.761 401.855 383.983 399.98C381.205 398.088 379.5 395.403 378.869 391.926L386.259 390.801C386.719 392.727 387.665 394.185 389.097 395.173C390.528 396.145 392.395 396.631 394.696 396.631C397.202 396.631 399.205 396.111 400.705 395.071C402.205 394.014 402.955 392.727 402.955 391.21C402.955 389.983 402.494 388.952 401.574 388.116C400.67 387.281 399.281 386.651 397.406 386.224L390.759 384.767C387.094 383.932 384.384 382.602 382.628 380.778C380.889 378.955 380.02 376.645 380.02 373.849C380.02 371.531 380.668 369.503 381.963 367.764C383.259 366.026 385.048 364.67 387.332 363.699C389.616 362.71 392.233 362.216 395.182 362.216C399.426 362.216 402.767 363.136 405.205 364.977C407.642 366.801 409.253 369.247 410.037 372.315Z" fill="#9B9B9B"/>
</svg>
