<svg width="20" height="20" viewBox="0 0 20 20" fill="none" xmlns="http://www.w3.org/2000/svg">
<path d="M2.91602 17.5013C2.58268 17.5013 2.29102 17.3763 2.04102 17.1263C1.79102 16.8763 1.66602 16.5846 1.66602 16.2513V6.2513C1.66602 5.91797 1.79102 5.6263 2.04102 5.3763C2.29102 5.1263 2.58268 5.0013 2.91602 5.0013H6.66602V2.91797C6.66602 2.58464 6.79102 2.29297 7.04102 2.04297C7.29102 1.79297 7.58268 1.66797 7.91602 1.66797H12.0827C12.416 1.66797 12.7077 1.79297 12.9577 2.04297C13.2077 2.29297 13.3327 2.58464 13.3327 2.91797V5.0013H17.0827C17.416 5.0013 17.7077 5.1263 17.9577 5.3763C18.2077 5.6263 18.3327 5.91797 18.3327 6.2513V16.2513C18.3327 16.5846 18.2077 16.8763 17.9577 17.1263C17.7077 17.3763 17.416 17.5013 17.0827 17.5013H2.91602ZM7.91602 5.0013H12.0827V2.91797H7.91602V5.0013ZM17.0827 12.2721H11.8952V13.5221H8.14518V12.2721H2.91602V16.2513H17.0827V12.2721ZM9.39518 12.2721H10.6452V11.0221H9.39518V12.2721ZM2.91602 11.0221H8.14518V9.77213H11.8952V11.0221H17.0827V6.2513H2.91602V11.0221Z" fill="black" fill-opacity="0.5"/>
</svg>
