<svg width="32" height="32" viewBox="0 0 32 32" fill="none" xmlns="http://www.w3.org/2000/svg">
<rect width="32" height="32" rx="16" fill="#E6F0F8"/>
<path d="M8.91602 23.5013C8.58268 23.5013 8.29102 23.3763 8.04102 23.1263C7.79102 22.8763 7.66602 22.5846 7.66602 22.2513V12.2513C7.66602 11.918 7.79102 11.6263 8.04102 11.3763C8.29102 11.1263 8.58268 11.0013 8.91602 11.0013H12.666V8.91797C12.666 8.58464 12.791 8.29297 13.041 8.04297C13.291 7.79297 13.5827 7.66797 13.916 7.66797H18.0827C18.416 7.66797 18.7077 7.79297 18.9577 8.04297C19.2077 8.29297 19.3327 8.58464 19.3327 8.91797V11.0013H23.0827C23.416 11.0013 23.7077 11.1263 23.9577 11.3763C24.2077 11.6263 24.3327 11.918 24.3327 12.2513V22.2513C24.3327 22.5846 24.2077 22.8763 23.9577 23.1263C23.7077 23.3763 23.416 23.5013 23.0827 23.5013H8.91602ZM13.916 11.0013H18.0827V8.91797H13.916V11.0013ZM23.0827 18.2721H17.8952V19.5221H14.1452V18.2721H8.91602V22.2513H23.0827V18.2721ZM15.3952 18.2721H16.6452V17.0221H15.3952V18.2721ZM8.91602 17.0221H14.1452V15.7721H17.8952V17.0221H23.0827V12.2513H8.91602V17.0221Z" fill="#0B7FAD"/>
</svg>
