<svg width="32" height="32" viewBox="0 0 32 32" fill="none" xmlns="http://www.w3.org/2000/svg">
<rect width="32" height="32" rx="16" fill="#E6F0F8"/>
<path d="M16.0007 15.9805C15.084 15.9805 14.334 15.6888 13.7507 15.1055C13.1673 14.5221 12.8757 13.7721 12.8757 12.8555C12.8757 11.9388 13.1673 11.1888 13.7507 10.6055C14.334 10.0221 15.084 9.73047 16.0007 9.73047C16.9173 9.73047 17.6673 10.0221 18.2507 10.6055C18.834 11.1888 19.1257 11.9388 19.1257 12.8555C19.1257 13.7721 18.834 14.5221 18.2507 15.1055C17.6673 15.6888 16.9173 15.9805 16.0007 15.9805ZM9.33398 22.668V20.7096C9.33398 20.1819 9.46593 19.7305 9.72982 19.3555C9.99371 18.9805 10.334 18.6957 10.7507 18.5013C11.6812 18.0846 12.5736 17.7721 13.4277 17.5638C14.2819 17.3555 15.1395 17.2513 16.0007 17.2513C16.8618 17.2513 17.7159 17.3589 18.5632 17.5742C19.4104 17.7895 20.2987 18.0999 21.2282 18.5053C21.6629 18.7015 22.0114 18.986 22.2738 19.3588C22.5361 19.7316 22.6673 20.1819 22.6673 20.7096V22.668H9.33398ZM10.584 21.418H21.4173V20.7096C21.4173 20.4874 21.3513 20.2756 21.2194 20.0742C21.0875 19.8728 20.9243 19.7235 20.7298 19.6263C19.8409 19.1957 19.0284 18.9006 18.2923 18.7409C17.5562 18.5812 16.7923 18.5013 16.0007 18.5013C15.209 18.5013 14.4382 18.5812 13.6882 18.7409C12.9382 18.9006 12.1257 19.1957 11.2507 19.6263C11.0562 19.7235 10.8965 19.8728 10.7715 20.0742C10.6465 20.2756 10.584 20.4874 10.584 20.7096V21.418ZM16.0007 14.7305C16.5423 14.7305 16.9902 14.5534 17.3444 14.1992C17.6986 13.8451 17.8757 13.3971 17.8757 12.8555C17.8757 12.3138 17.6986 11.8659 17.3444 11.5117C16.9902 11.1576 16.5423 10.9805 16.0007 10.9805C15.459 10.9805 15.0111 11.1576 14.6569 11.5117C14.3027 11.8659 14.1257 12.3138 14.1257 12.8555C14.1257 13.3971 14.3027 13.8451 14.6569 14.1992C15.0111 14.5534 15.459 14.7305 16.0007 14.7305Z" fill="#0B7FAD"/>
</svg>
