<svg width="20" height="20" viewBox="0 0 20 20" fill="none" xmlns="http://www.w3.org/2000/svg">
<path d="M10.0007 9.98047C9.08398 9.98047 8.33398 9.6888 7.75065 9.10547C7.16732 8.52214 6.87565 7.77214 6.87565 6.85547C6.87565 5.9388 7.16732 5.1888 7.75065 4.60547C8.33398 4.02214 9.08398 3.73047 10.0007 3.73047C10.9173 3.73047 11.6673 4.02214 12.2507 4.60547C12.834 5.1888 13.1257 5.9388 13.1257 6.85547C13.1257 7.77214 12.834 8.52214 12.2507 9.10547C11.6673 9.6888 10.9173 9.98047 10.0007 9.98047ZM3.33398 16.668V14.7096C3.33398 14.1819 3.46593 13.7305 3.72982 13.3555C3.99371 12.9805 4.33398 12.6957 4.75065 12.5013C5.68121 12.0846 6.57357 11.7721 7.42773 11.5638C8.2819 11.3555 9.13954 11.2513 10.0007 11.2513C10.8618 11.2513 11.7159 11.3589 12.5632 11.5742C13.4104 11.7895 14.2987 12.0999 15.2282 12.5053C15.6629 12.7015 16.0114 12.986 16.2738 13.3588C16.5361 13.7316 16.6673 14.1819 16.6673 14.7096V16.668H3.33398ZM4.58398 15.418H15.4173V14.7096C15.4173 14.4874 15.3513 14.2756 15.2194 14.0742C15.0875 13.8728 14.9243 13.7235 14.7298 13.6263C13.8409 13.1957 13.0284 12.9006 12.2923 12.7409C11.5562 12.5812 10.7923 12.5013 10.0007 12.5013C9.20898 12.5013 8.43815 12.5812 7.68815 12.7409C6.93815 12.9006 6.12565 13.1957 5.25065 13.6263C5.05621 13.7235 4.89648 13.8728 4.77148 14.0742C4.64648 14.2756 4.58398 14.4874 4.58398 14.7096V15.418ZM10.0007 8.73047C10.5423 8.73047 10.9902 8.55339 11.3444 8.19922C11.6986 7.84505 11.8757 7.39714 11.8757 6.85547C11.8757 6.3138 11.6986 5.86589 11.3444 5.51172C10.9902 5.15755 10.5423 4.98047 10.0007 4.98047C9.45898 4.98047 9.01107 5.15755 8.6569 5.51172C8.30273 5.86589 8.12565 6.3138 8.12565 6.85547C8.12565 7.39714 8.30273 7.84505 8.6569 8.19922C9.01107 8.55339 9.45898 8.73047 10.0007 8.73047Z" fill="black" fill-opacity="0.5"/>
</svg>
