<svg width="20" height="20" viewBox="0 0 20 20" fill="none" xmlns="http://www.w3.org/2000/svg">
<path d="M6.875 9.7913V8.54134H13.125V9.7913H6.875ZM6.875 6.45797V5.20801H13.125V6.45797H6.875ZM4.99998 11.8747H11.25C11.6207 11.8747 11.9636 11.9548 12.2788 12.1151C12.594 12.2753 12.8616 12.5018 13.0817 12.7945L15 15.2946V3.58943C15 3.51463 14.9759 3.4532 14.9279 3.40511C14.8798 3.35703 14.8183 3.33299 14.7435 3.33299H5.25642C5.18163 3.33299 5.12019 3.35703 5.0721 3.40511C5.02402 3.4532 4.99998 3.51463 4.99998 3.58943V11.8747ZM5.25642 16.6663H14.4728L12.0977 13.5589C11.993 13.4211 11.8683 13.3143 11.7235 13.2384C11.5788 13.1626 11.4209 13.1246 11.25 13.1246H4.99998V16.4099C4.99998 16.4847 5.02402 16.5461 5.0721 16.5942C5.12019 16.6423 5.18163 16.6663 5.25642 16.6663ZM14.7435 17.9163H5.25642C4.83547 17.9163 4.47917 17.7705 4.1875 17.4788C3.89583 17.1871 3.75 16.8308 3.75 16.4099V3.58943C3.75 3.16848 3.89583 2.81217 4.1875 2.52051C4.47917 2.22884 4.83547 2.08301 5.25642 2.08301H14.7435C15.1645 2.08301 15.5208 2.22884 15.8125 2.52051C16.1041 2.81217 16.25 3.16848 16.25 3.58943V16.4099C16.25 16.8308 16.1041 17.1871 15.8125 17.4788C15.5208 17.7705 15.1645 17.9163 14.7435 17.9163Z" fill="black"/>
</svg>
