<svg width="32" height="32" viewBox="0 0 32 32" fill="none" xmlns="http://www.w3.org/2000/svg">
<path d="M14.3667 27.5333H6C5.46667 27.5333 5 27.3333 4.6 26.9333C4.2 26.5333 4 26.0667 4 25.5333V6.13334C4 5.60001 4.17222 5.13334 4.51667 4.73334C4.86111 4.33334 5.15556 4.13334 5.4 4.13334H12.1333C12.2889 3.35556 12.6722 2.71667 13.2833 2.21667C13.8944 1.71667 14.6 1.46667 15.4 1.46667C16.2 1.46667 16.9056 1.71667 17.5167 2.21667C18.1278 2.71667 18.5111 3.35556 18.6667 4.13334H25.4C25.9333 4.13334 26.4 4.33334 26.8 4.73334C27.2 5.13334 27.4 5.60001 27.4 6.13334V12.9H25.4V6.13334H21.8667V10.4667H9.53333V6.13334H6V25.5333H14.3667V27.5333ZM20.6667 26.7L15.3333 21.3667L16.7667 19.9333L20.6667 23.8333L28.6333 15.8667L30.0667 17.3L20.6667 26.7ZM16 6.00001C16.3778 6.00001 16.6944 5.87223 16.95 5.61667C17.2056 5.36112 17.3333 5.04445 17.3333 4.66668C17.3333 4.2889 17.2056 3.97223 16.95 3.71667C16.6944 3.46112 16.3778 3.33334 16 3.33334C15.6222 3.33334 15.3056 3.46112 15.05 3.71667C14.7944 3.97223 14.6667 4.2889 14.6667 4.66668C14.6667 5.04445 14.7944 5.36112 15.05 5.61667C15.3056 5.87223 15.6222 6.00001 16 6.00001Z" fill="white"/>
</svg>
