<svg width="24" height="24" viewBox="0 0 24 24" fill="none" xmlns="http://www.w3.org/2000/svg">
<path d="M7.25 16.75H10.75V13.25H7.25V16.75ZM13.25 16.75H16.75V13.25H13.25V16.75ZM7.25 10.75H10.75V7.25H7.25V10.75ZM13.25 10.75H16.75V7.25H13.25V10.75ZM4.5 21C4.1 21 3.75 20.85 3.45 20.55C3.15 20.25 3 19.9 3 19.5V4.5C3 4.1 3.15 3.75 3.45 3.45C3.75 3.15 4.1 3 4.5 3H19.5C19.9 3 20.25 3.15 20.55 3.45C20.85 3.75 21 4.1 21 4.5V19.5C21 19.9 20.85 20.25 20.55 20.55C20.25 20.85 19.9 21 19.5 21H4.5ZM4.5 19.5H19.5V4.5H4.5V19.5Z" fill="white"/>
</svg>
