<svg width="32" height="32" viewBox="0 0 32 32" fill="none" xmlns="http://www.w3.org/2000/svg">
<path d="M9.33301 18.2667C8.71079 18.2667 8.17745 18.0444 7.73301 17.6C7.28856 17.1556 7.06634 16.6222 7.06634 16C7.06634 15.3778 7.28856 14.8444 7.73301 14.4C8.17745 13.9556 8.71079 13.7333 9.33301 13.7333C9.95523 13.7333 10.4886 13.9556 10.933 14.4C11.3775 14.8444 11.5997 15.3778 11.5997 16C11.5997 16.6222 11.3775 17.1556 10.933 17.6C10.4886 18.0444 9.95523 18.2667 9.33301 18.2667ZM9.33301 24C7.11079 24 5.2219 23.2222 3.66634 21.6667C2.11079 20.1111 1.33301 18.2222 1.33301 16C1.33301 13.7778 2.11079 11.8889 3.66634 10.3333C5.2219 8.77778 7.11079 8 9.33301 8C10.933 8 12.333 8.37778 13.533 9.13333C14.733 9.88889 15.6775 11.0333 16.3663 12.5667H28.233L31.9997 16.3333L26.433 21.4333L23.4997 19.3L20.5663 21.4333L18.0663 19.4333H16.3663C15.8108 20.7667 14.9386 21.8611 13.7497 22.7167C12.5608 23.5722 11.0886 24 9.33301 24ZM9.33301 22C10.6219 22 11.8108 21.5722 12.8997 20.7167C13.9886 19.8611 14.6886 18.7667 14.9997 17.4333H18.7997L20.5997 18.9333L23.533 16.8333L26.2663 18.9L29.0997 16.2667L27.3997 14.5667H14.9997C14.733 13.3222 14.0663 12.25 12.9997 11.35C11.933 10.45 10.7108 10 9.33301 10C7.66634 10 6.24967 10.5833 5.08301 11.75C3.91634 12.9167 3.33301 14.3333 3.33301 16C3.33301 17.6667 3.91634 19.0833 5.08301 20.25C6.24967 21.4167 7.66634 22 9.33301 22Z" fill="white"/>
</svg>
