<svg width="41" height="40" viewBox="0 0 41 40" fill="none" xmlns="http://www.w3.org/2000/svg">
<g clip-path="url(#clip0_206_2874)">
<path d="M17.0647 0.294136C14.5937 0.735313 12.5587 1.52943 9.68076 3.17649C5.58183 5.50002 1.71547 7.52943 0.959635 7.7059C0.320086 7.88237 0.291016 8.02943 0.291016 10.6471C0.291016 15.5588 1.74454 22.5588 3.60504 26.5588C4.73879 29.0294 6.22138 31.1765 6.80279 31.1765C7.00628 31.1765 7.52955 31.6177 7.96561 32.1765C9.24471 33.8824 13.3727 37.0294 16.2216 38.4412L18.8961 39.8235L21.5996 38.4412C24.4776 36.9412 28.5765 33.853 29.8266 32.1765C30.2626 31.6177 30.7859 31.1765 30.9894 31.1765C31.2219 31.1765 31.8034 30.6177 32.2976 29.9118C35.2627 25.8824 37.7047 16.5 37.443 10.2059L37.3558 7.91178L35.6407 7.2059C34.7104 6.82355 32.3266 5.55884 30.3498 4.41178C28.373 3.26472 26.0765 2.02943 25.2334 1.64708C22.5299 0.441193 19.274 -0.0882187 17.0647 0.294136ZM24.0997 2.58825C25.2916 3.08825 27.8498 4.44119 29.7975 5.58825C31.7452 6.7059 33.8964 7.85296 34.5941 8.08825C35.2918 8.35296 35.9895 8.7059 36.1058 8.91178C36.5128 9.55884 36.3383 13.7059 35.786 17.1177C35.1465 20.7353 34.3616 23.6177 33.2569 26.1471C32.472 27.9118 30.2917 30.9706 29.9719 30.7353C29.8556 30.6765 29.1579 31.2059 28.4603 31.9412C25.8148 34.7059 20.495 38.2353 18.9542 38.2353C17.3844 38.2353 12.8204 35.3824 10.0005 32.6177C8.86679 31.5 7.8784 30.6471 7.79119 30.7353C7.70397 30.8235 7.03535 30.1177 6.30859 29.1177C3.80854 25.7647 1.86082 19.0883 1.54104 12.7647C1.39569 9.94119 1.45383 9.14708 1.77361 8.88237C2.00617 8.67649 3.43062 7.88237 4.94228 7.11766C6.45395 6.32355 9.01214 5.00002 10.5819 4.11766C14.739 1.85296 16.1635 1.44119 19.3321 1.55884C21.4543 1.64708 22.3555 1.85296 24.0997 2.58825Z" fill="white"/>
<path d="M15.989 2.5C13.8087 3.11765 11.8319 4.08824 7.99459 6.32353C6.2213 7.38235 4.33172 8.38235 3.77938 8.55882C2.20958 9.08824 2.03516 9.35294 2.03516 11C2.03516 13.2647 2.82006 18.3235 3.63403 21.3824C4.82592 25.9118 5.84338 27.7059 9.09927 30.8824C12.4424 34.1177 13.8959 35.2353 16.832 36.7059L18.9541 37.7647L20.7856 36.7941C23.5473 35.3529 25.8148 33.6471 28.7218 30.8529C31.8905 27.7941 33.1114 25.5588 34.3324 20.5882C35.3208 16.5588 36.0185 10.4118 35.5534 9.58824C35.3789 9.29412 34.7975 8.88235 34.2161 8.67647C33.6347 8.47059 31.3091 7.2353 29.0125 5.94118C26.716 4.61765 24.0705 3.26471 23.1112 2.94118C20.7565 2.11765 17.9658 1.94118 15.989 2.5ZM10.2621 8.2353C10.6691 8.70588 11.1051 9.38235 11.1923 9.7353C11.3668 10.2941 11.4249 10.2941 11.89 9.88235C12.6459 9.20588 14.8261 8.29412 16.3087 8.08824C17.5297 7.91177 17.7332 7.97059 18.6925 8.82353C19.2739 9.32353 20.1751 9.88235 20.6984 10.0294C21.2798 10.1765 21.8321 10.6176 22.1519 11.1765C22.4135 11.6471 22.617 12.0588 22.5589 12.0588C22.5007 12.0588 21.367 12.2647 20.0588 12.5294C17.3262 13.0294 13.6924 14.3235 11.7156 15.4412C10.9888 15.8235 10.2912 16.0882 10.1458 16C9.70975 15.7353 9.8551 14.6176 10.4656 13.6765C10.8435 13.0882 10.9307 12.7059 10.7272 12.4706C10.1749 11.7941 8.72136 8.5 8.72136 7.94118C8.72136 7.08824 9.41905 7.2353 10.2621 8.2353ZM27.6171 13.1176C27.966 13.4706 27.9369 13.6176 27.4427 14.3235C26.8904 15.0588 24.0415 17.0588 23.4891 17.0588C23.3729 17.0588 23.1112 16.7059 22.9077 16.2353C22.3263 15 20.7274 15.0294 16.8901 16.3235C13.1982 17.5588 12.3261 18.2647 12.5877 19.8235C12.7912 21.0294 12.4714 21.1765 9.5644 21.1765C6.88992 21.1765 6.19223 20.2647 7.76203 18.7647C10.0005 16.6176 18.7216 13.1765 23.4019 12.5882C24.8264 12.3824 27.152 12.7059 27.6171 13.1176ZM24.5647 18.0588C26.6869 18.9706 27.152 22.5294 25.3206 24.1765C24.8264 24.6177 24.2159 25 23.9833 25C23.431 25 23.431 25.2059 24.0415 27.3529C24.3903 28.6765 24.652 29.1177 25.0299 29.1177C25.7276 29.1177 25.902 29.4706 25.6985 30.5588C25.5241 31.4706 25.495 31.4706 23.6636 31.4706H21.8321L21.5414 30.3529C21.367 29.7647 21.0472 28.3824 20.7565 27.2647C20.3205 25.4118 20.2332 25.2941 19.4483 25.2941C18.7216 25.2941 18.5762 25.4412 18.3146 26.5294C17.8204 28.3824 17.8204 29.2353 18.3146 29.2647C18.7216 29.2647 18.7797 29.4706 18.6634 30.8824C18.6053 31.4412 18.4018 31.4706 15.4076 31.4706H12.2389L12.4133 30.5C12.6168 29.3529 12.6749 29.2647 13.4308 29.2647C13.9831 29.2647 14.1575 28.7941 15.0006 25C16.1634 19.9412 16.1343 20.1176 15.4366 19.9118C14.8843 19.7647 14.8552 19.4118 15.2913 18C15.4366 17.4706 23.2275 17.5 24.5647 18.0588Z" fill="white"/>
<path d="M19.5937 20.7941C19.5065 21.2647 19.303 22.0588 19.1867 22.5588C18.9542 23.5 18.9542 23.5294 19.9135 23.5294C22.0938 23.5294 23.2857 22.3235 22.6752 20.7353C22.4426 20.0882 22.2101 20 21.0763 20C19.8844 20 19.7681 20.0588 19.5937 20.7941Z" fill="white"/>
</g>
<defs>
<clipPath id="clip0_206_2874">
<rect width="41" height="40" fill="white"/>
</clipPath>
</defs>
</svg>
