<svg width="32" height="32" viewBox="0 0 32 32" fill="none" xmlns="http://www.w3.org/2000/svg">
<path d="M10.6663 15.6667V13.6667H21.333V15.6667H10.6663ZM10.6663 10.3334V8.33335H21.333V10.3334H10.6663ZM7.33301 19H17.9997C18.587 19 19.1338 19.1334 19.6402 19.4C20.1465 19.6667 20.5775 20.0222 20.933 20.4667L24.6663 25.3334V4.66669H7.33301V19ZM7.33301 27.3334H23.6663L19.3663 21.7C19.1982 21.4804 18.9951 21.3089 18.7569 21.1853C18.5188 21.0618 18.2663 21 17.9997 21H7.33301V27.3334ZM24.6663 29.3334H7.33301C6.79967 29.3334 6.33301 29.1334 5.93301 28.7334C5.53301 28.3334 5.33301 27.8667 5.33301 27.3334V4.66669C5.33301 4.13335 5.53301 3.66669 5.93301 3.26669C6.33301 2.86669 6.79967 2.66669 7.33301 2.66669H24.6663C25.1997 2.66669 25.6663 2.86669 26.0663 3.26669C26.4663 3.66669 26.6663 4.13335 26.6663 4.66669V27.3334C26.6663 27.8667 26.4663 28.3334 26.0663 28.7334C25.6663 29.1334 25.1997 29.3334 24.6663 29.3334Z" fill="white"/>
</svg>
