<svg width="32" height="32" viewBox="0 0 32 32" fill="none" xmlns="http://www.w3.org/2000/svg">
<path d="M12.9337 29.3333L12.267 25.1333C11.8448 24.9778 11.4003 24.7667 10.9337 24.5C10.467 24.2333 10.0559 23.9555 9.70033 23.6667L5.76699 25.4667L2.66699 20L6.26699 17.3667C6.22255 17.1667 6.19477 16.9389 6.18366 16.6833C6.17255 16.4278 6.16699 16.2 6.16699 16C6.16699 15.8 6.17255 15.5722 6.18366 15.3167C6.19477 15.0611 6.22255 14.8333 6.26699 14.6333L2.66699 12L5.76699 6.53332L9.70033 8.33332C10.0559 8.04443 10.467 7.76666 10.9337 7.49999C11.4003 7.23332 11.8448 7.03332 12.267 6.89999L12.9337 2.66666H19.067L19.7337 6.86666C20.1559 7.02221 20.6059 7.22777 21.0837 7.48332C21.5614 7.73888 21.967 8.02221 22.3003 8.33332L26.2337 6.53332L29.3337 12L25.7337 14.5667C25.7781 14.7889 25.8059 15.0278 25.817 15.2833C25.8281 15.5389 25.8337 15.7778 25.8337 16C25.8337 16.2222 25.8281 16.4555 25.817 16.7C25.8059 16.9444 25.7781 17.1778 25.7337 17.4L29.3337 20L26.2337 25.4667L22.3003 23.6667C21.9448 23.9555 21.5392 24.2389 21.0837 24.5167C20.6281 24.7944 20.1781 25 19.7337 25.1333L19.067 29.3333H12.9337ZM16.0003 20.3333C17.2003 20.3333 18.2225 19.9111 19.067 19.0667C19.9114 18.2222 20.3337 17.2 20.3337 16C20.3337 14.8 19.9114 13.7778 19.067 12.9333C18.2225 12.0889 17.2003 11.6667 16.0003 11.6667C14.8003 11.6667 13.7781 12.0889 12.9337 12.9333C12.0892 13.7778 11.667 14.8 11.667 16C11.667 17.2 12.0892 18.2222 12.9337 19.0667C13.7781 19.9111 14.8003 20.3333 16.0003 20.3333ZM16.0003 18.3333C15.3559 18.3333 14.8059 18.1055 14.3503 17.65C13.8948 17.1944 13.667 16.6444 13.667 16C13.667 15.3555 13.8948 14.8055 14.3503 14.35C14.8059 13.8944 15.3559 13.6667 16.0003 13.6667C16.6448 13.6667 17.1948 13.8944 17.6503 14.35C18.1059 14.8055 18.3337 15.3555 18.3337 16C18.3337 16.6444 18.1059 17.1944 17.6503 17.65C17.1948 18.1055 16.6448 18.3333 16.0003 18.3333ZM14.5337 27.3333H17.467L17.9337 23.6C18.667 23.4222 19.3614 23.1444 20.017 22.7667C20.6725 22.3889 21.267 21.9333 21.8003 21.4L25.3337 22.9333L26.667 20.5333L23.5337 18.2333C23.6225 17.8555 23.6948 17.4833 23.7503 17.1167C23.8059 16.75 23.8337 16.3778 23.8337 16C23.8337 15.6222 23.8114 15.25 23.767 14.8833C23.7225 14.5167 23.6448 14.1444 23.5337 13.7667L26.667 11.4667L25.3337 9.06666L21.8003 10.6C21.2892 10.0222 20.7114 9.53888 20.067 9.14999C19.4225 8.7611 18.7114 8.5111 17.9337 8.39999L17.467 4.66666H14.5337L14.067 8.39999C13.3114 8.55554 12.6059 8.82221 11.9503 9.19999C11.2948 9.57777 10.7114 10.0444 10.2003 10.6L6.66699 9.06666L5.33366 11.4667L8.46699 13.7667C8.3781 14.1444 8.30588 14.5167 8.25033 14.8833C8.19477 15.25 8.16699 15.6222 8.16699 16C8.16699 16.3778 8.19477 16.75 8.25033 17.1167C8.30588 17.4833 8.3781 17.8555 8.46699 18.2333L5.33366 20.5333L6.66699 22.9333L10.2003 21.4C10.7337 21.9333 11.3281 22.3889 11.9837 22.7667C12.6392 23.1444 13.3337 23.4222 14.067 23.6L14.5337 27.3333Z" fill="white"/>
</svg>
