<svg width="32" height="32" viewBox="0 0 32 32" fill="none" xmlns="http://www.w3.org/2000/svg">
<path d="M18.6337 28.7667C18.2337 29.1667 17.7503 29.3667 17.1837 29.3667C16.617 29.3667 16.1337 29.1667 15.7337 28.7667L3.23366 16.2667C3.01144 16.0445 2.86144 15.8111 2.78366 15.5667C2.70588 15.3222 2.66699 15.0667 2.66699 14.8V4.66669C2.66699 4.08891 2.85588 3.61113 3.23366 3.23335C3.61144 2.85558 4.08921 2.66669 4.66699 2.66669H14.8003C15.067 2.66669 15.3337 2.70558 15.6003 2.78335C15.867 2.86113 16.1114 3.01113 16.3337 3.23335L28.767 15.6667C29.1892 16.0889 29.4003 16.5834 29.4003 17.15C29.4003 17.7167 29.1892 18.2111 28.767 18.6334L18.6337 28.7667ZM17.267 27.4L27.4003 17.2667L14.8003 4.66669H4.66699V14.8L17.267 27.4ZM8.16699 9.86669C8.63366 9.86669 9.03921 9.69447 9.38366 9.35002C9.7281 9.00558 9.90033 8.60002 9.90033 8.13335C9.90033 7.66669 9.7281 7.26113 9.38366 6.91669C9.03921 6.57224 8.63366 6.40002 8.16699 6.40002C7.70033 6.40002 7.29477 6.57224 6.95033 6.91669C6.60588 7.26113 6.43366 7.66669 6.43366 8.13335C6.43366 8.60002 6.60588 9.00558 6.95033 9.35002C7.29477 9.69447 7.70033 9.86669 8.16699 9.86669Z" fill="white"/>
</svg>
