<svg width="33" height="32" viewBox="0 0 33 32" fill="none" xmlns="http://www.w3.org/2000/svg">
<path d="M23.5291 23C24.1043 23 24.5931 22.7889 24.9957 22.3667C25.3984 21.9444 25.5997 21.4458 25.5997 20.8706C25.5997 20.2954 25.3984 19.8065 24.9957 19.4039C24.5931 19.0013 24.1043 18.8 23.5291 18.8C22.9539 18.8 22.4552 19.0013 22.033 19.4039C21.6108 19.8065 21.3997 20.2954 21.3997 20.8706C21.3997 21.4458 21.6108 21.9444 22.033 22.3667C22.4552 22.7889 22.9539 23 23.5291 23ZM23.483 27.1667C24.2275 27.1667 24.8997 27.0111 25.4997 26.7C26.0997 26.3889 26.6108 25.9444 27.033 25.3667C26.4552 25.0556 25.8779 24.8222 25.3009 24.6667C24.724 24.5111 24.124 24.4333 23.5009 24.4333C22.8779 24.4333 22.2719 24.5111 21.683 24.6667C21.0941 24.8222 20.5219 25.0556 19.9663 25.3667C20.3886 25.9444 20.8941 26.3889 21.483 26.7C22.0719 27.0111 22.7386 27.1667 23.483 27.1667ZM16.4997 29.3333C13.433 28.6222 10.8886 26.8833 8.86634 24.1167C6.84412 21.35 5.83301 18.1778 5.83301 14.6V6.63333L16.4997 2.63333L27.1663 6.63333V15.6333C26.8552 15.4778 26.5219 15.3389 26.1663 15.2167C25.8108 15.0944 25.4775 15.0111 25.1663 14.9667V8.03333L16.4997 4.83333L7.83301 8.03333V14.6C7.83301 16.2889 8.10523 17.8444 8.64967 19.2667C9.19412 20.6889 9.88856 21.9389 10.733 23.0167C11.5775 24.0944 12.5108 24.9889 13.533 25.7C14.5552 26.4111 15.5441 26.9222 16.4997 27.2333C16.633 27.5 16.833 27.8 17.0997 28.1333C17.3663 28.4667 17.5886 28.7222 17.7663 28.9C17.5663 29.0111 17.3552 29.0944 17.133 29.15C16.9108 29.2056 16.6997 29.2667 16.4997 29.3333ZM23.583 29.3333C21.8608 29.3333 20.3886 28.7167 19.1663 27.4833C17.9441 26.25 17.333 24.7889 17.333 23.1C17.333 21.357 17.944 19.8712 19.166 18.6427C20.388 17.4142 21.8659 16.8 23.5997 16.8C25.3108 16.8 26.783 17.4142 28.0163 18.6427C29.2497 19.8712 29.8663 21.357 29.8663 23.1C29.8663 24.7889 29.2497 26.25 28.0163 27.4833C26.783 28.7167 25.3052 29.3333 23.583 29.3333Z" fill="white"/>
</svg>
