<?xml version="1.0" encoding="UTF-8"?>
<svg id="Layer_1" xmlns="http://www.w3.org/2000/svg" viewBox="0 0 1000 525">
  <defs>
    <style>
      .cls-1 {
      fill: #7c297d;
      }

      .cls-2 {
      fill: #f79a23;
      }

      .cls-3 {
      fill: #dd552c;
      }

      .cls-4 {
      fill: #d22128;
      }

      .cls-5 {
      fill: #ffffff;
      }

      .cls-6 {
      fill: #cccccc;
      }

      .cls-7 {
      fill: #cccccc;
      }
    </style>
  </defs>
  <g>
    <g transform="translate(575,20) scale(11)">
      <path class="cls-5" d="M16.7736 0.122444C14.3026 0.56362 12.2677 1.35774 9.38975 3.0048C5.29082 5.32833 1.42445 7.35774 0.66862 7.53421C0.0290704 7.71068 0 7.85774 0 10.4754C0 15.3871 1.45352 22.3871 3.31403 26.3871C4.44778 28.8577 5.93037 31.0048 6.51178 31.0048C6.71527 31.0048 7.23854 31.446 7.67459 32.0048C8.95369 33.7107 13.0817 36.8577 15.9306 38.2695L18.6051 39.6519L21.3086 38.2695C24.1866 36.7695 28.2855 33.6813 29.5356 32.0048C29.9716 31.446 30.4949 31.0048 30.6984 31.0048C30.9309 31.0048 31.5123 30.446 32.0065 29.7401C34.9717 25.7107 37.4136 16.3283 37.152 10.0342L37.0648 7.74009L35.3496 7.03421C34.4194 6.65186 32.0356 5.38715 30.0588 4.24009C28.082 3.09303 25.7855 1.85774 24.9424 1.47538C22.2389 0.269502 18.983 -0.259909 16.7736 0.122444ZM23.8087 2.41656C25.0006 2.91656 27.5588 4.2695 29.5065 5.41656C31.4542 6.53421 33.6054 7.68127 34.3031 7.91656C35.0008 8.18127 35.6985 8.53421 35.8148 8.74009C36.2218 9.38715 36.0473 13.5342 35.495 16.946C34.8554 20.5636 34.0705 23.446 32.9659 25.9754C32.181 27.7401 30.0007 30.7989 29.6809 30.5636C29.5646 30.5048 28.8669 31.0342 28.1692 31.7695C25.5238 34.5342 20.2039 38.0636 18.6632 38.0636C17.0934 38.0636 12.5294 35.2107 9.70952 32.446C8.57578 31.3283 7.58738 30.4754 7.50017 30.5636C7.41296 30.6519 6.74434 29.946 6.01758 28.946C3.51752 25.593 1.5698 18.9166 1.25003 12.593C1.10468 9.7695 1.16282 8.97538 1.48259 8.71068C1.71516 8.5048 3.13961 7.71068 4.65127 6.94597C6.16293 6.15186 8.72113 4.82833 10.2909 3.94597C14.448 1.68127 15.8725 1.2695 19.0411 1.38715C21.1633 1.47538 22.0645 1.68127 23.8087 2.41656Z" fill="grey"/>
      <path class="cls-6" d="M15.6979 2.32855C13.5177 2.9462 11.5409 3.91679 7.70358 6.15208C5.93028 7.21091 4.0407 8.21091 3.48837 8.38738C1.91856 8.91679 1.74414 9.1815 1.74414 10.8286C1.74414 13.0933 2.52904 18.1521 3.34301 21.2109C4.5349 25.7403 5.55237 27.5344 8.80826 30.7109C12.1514 33.9462 13.6049 35.0638 16.541 36.5344L18.6631 37.5933L20.4946 36.6227C23.2563 35.1815 25.5238 33.4756 28.4308 30.6815C31.5995 27.6227 32.8204 25.3874 34.0414 20.4168C35.0298 16.3874 35.7275 10.2403 35.2623 9.41679C35.0879 9.12267 34.5065 8.71091 33.9251 8.50502C33.3437 8.29914 31.0181 7.06385 28.7215 5.76973C26.4249 4.4462 23.7795 3.09326 22.8202 2.76973C20.4655 1.9462 17.6747 1.76973 15.6979 2.32855ZM9.97107 8.06385C10.3781 8.53444 10.8141 9.21091 10.9013 9.56385C11.0757 10.1227 11.1339 10.1227 11.599 9.71091C12.3548 9.03444 14.5351 8.12267 16.0177 7.91679C17.2387 7.74032 17.4422 7.79914 18.4015 8.65208C18.9829 9.15208 19.8841 9.71091 20.4074 9.85797C20.9888 10.005 21.5411 10.4462 21.8609 11.005C22.1225 11.4756 22.326 11.8874 22.2679 11.8874C22.2097 11.8874 21.076 12.0933 19.7678 12.358C17.0352 12.858 13.4014 14.1521 11.4246 15.2697C10.6978 15.6521 10.0001 15.9168 9.85479 15.8286C9.41873 15.5638 9.56409 14.4462 10.1746 13.505C10.5525 12.9168 10.6397 12.5344 10.4362 12.2991C9.88386 11.6227 8.43034 8.32855 8.43034 7.76973C8.43034 6.91679 9.12803 7.06385 9.97107 8.06385ZM27.3261 12.9462C27.675 13.2991 27.6459 13.4462 27.1517 14.1521C26.5994 14.8874 23.7505 16.8874 23.1981 16.8874C23.0818 16.8874 22.8202 16.5344 22.6167 16.0638C22.0353 14.8286 20.4364 14.858 16.5991 16.1521C12.9072 17.3874 12.0351 18.0933 12.2967 19.6521C12.5002 20.858 12.1804 21.005 9.27338 21.005C6.5989 21.005 5.90121 20.0933 7.47102 18.5933C9.70944 16.4462 18.4306 13.005 23.1109 12.4168C24.5354 12.2109 26.861 12.5344 27.3261 12.9462ZM24.2737 17.8874C26.3959 18.7991 26.861 22.358 25.0296 24.005C24.5354 24.4462 23.9249 24.8286 23.6923 24.8286C23.14 24.8286 23.14 25.0344 23.7505 27.1815C24.0993 28.505 24.3609 28.9462 24.7389 28.9462C25.4365 28.9462 25.611 29.2991 25.4075 30.3874C25.233 31.2991 25.204 31.2991 23.3725 31.2991H21.5411L21.2504 30.1815C21.076 29.5933 20.7562 28.2109 20.4655 27.0933C20.0294 25.2403 19.9422 25.1227 19.1573 25.1227C18.4306 25.1227 18.2852 25.2697 18.0236 26.358C17.5294 28.2109 17.5294 29.0638 18.0236 29.0933C18.4306 29.0933 18.4887 29.2991 18.3724 30.7109C18.3143 31.2697 18.1108 31.2991 15.1165 31.2991H11.9479L12.1223 30.3286C12.3258 29.1815 12.3839 29.0933 13.1397 29.0933C13.6921 29.0933 13.8665 28.6227 14.7096 24.8286C15.8724 19.7697 15.8433 19.9462 15.1456 19.7403C14.5933 19.5933 14.5642 19.2403 15.0003 17.8286C15.1456 17.2991 22.9365 17.3286 24.2737 17.8874Z" fill="grey"/>
      <path class="cls-7" d="M19.3027 20.6226C19.2155 21.0932 19.012 21.8873 18.8957 22.3873C18.6632 23.3285 18.6632 23.3579 19.6225 23.3579C21.8028 23.3579 22.9947 22.152 22.3842 20.5638C22.1516 19.9167 21.919 19.8285 20.7853 19.8285C19.5934 19.8285 19.4771 19.8873 19.3027 20.6226Z" fill="grey"/>
    </g>
    <g >
      <path class="cls-3" d="M141.1077177,209.8881008c13.1869872-32.608129,27.9005344-65.1523006,43.6878912-93.9970469-23.5665852-17.5041056-46.1956909-55.2490163-55.4930639-71.9721694-3.3392448,3.7936783-5.5070609,8.1629723-6.4899838,11.7176522-8.7587851,31.6252061,22.4204029,69.8144518-2.6929393,55.86166-20.9241385-11.6267655-68.040478-37.0885068-86.0124818-11.7816095,20.1280383,25.862316,72.7733189,90.9304622,107.0005776,110.1715137Z"/>
      <path class="cls-2" d="M184.7956089,115.8910539c15.2975784-27.9493439,31.5999598-52.4281623,48.5015202-70.0635487,0,0-16.8578001,24.4013964-40.9360438,73.180626,14.5822664,4.0158458,56.1124399,12.2562401,113.9601427-2.686207,1.4222086-10.5125619-5.645074-22.0753701-40.8636711-25.9464703-22.9926525-2.5246306,27.5975787-54.9023003-9.0516423-79.6739759-1.1832102-.8011494-2.3462234-1.508046-3.4856733-2.1408868-1.2286536-.4409688-2.5263137-.8449097-3.9114944-1.2050903-42.8025874-11.1689658-48.7354693,61.409115-65.8154369,45.8068978-27.6009449-25.2126444-45.0225792-19.3218396-53.890765-9.2435142,9.297373,16.7231532,31.9264787,54.4680639,55.4930639,71.9721694Z"/>
      <path class="cls-4" d="M106.6818547,303.8380213c9.6626029-28.9457315,21.2860022-61.4663399,34.425863-93.9499204-34.2272587-19.2410514-86.8725393-84.3091977-107.0005776-110.1715137-3.5933909,5.0559936-6.0490149,12.1081284-6.8669953,21.7522173-4.3894911,51.802054,49.0518897,90.152876,38.3979485,97.1578844-14.0924881,9.2670774-42.1411341-22.2605096-53.19565-2.2284073,16.0229889,20.5841549,48.6614135,57.7770131,94.2394114,87.4397396Z"/>
      <path class="cls-3" d="M254.7564893,192.1180675c-27.0589909-9.6508213,28.2758628-35.5333343,46.2445004-62.9912168,2.2990969-3.5109196,4.6756159-8.0485224,5.3202382-12.8049265-57.8477027,14.942447-99.3778763,6.7020527-113.9601427,2.686207-12.4649429,25.2564046-26.8587035,57.0835812-41.8701571,95.4579665,15.6341958,6.6852219,79.4703224,31.3794754,169.6366631,31.50739,15.1595653-39.4852227-39.6905594-44.6994265-65.3711019-53.8554202Z"/>
      <path class="cls-4" d="M117.1371916,309.0488589c15.9001236,4.9550083,68.5841152,19.7560761,124.5366618,17.5276688,7.5166669-20.3518889-20.585838-22.3379316-22.8748364-38.6605101-1.7722907-12.6298854,73.9565291,10.6135471,98.3225807-35.3111668,1.2320197-2.3226602,2.1930625-4.5140395,3.0059935-6.6313631-90.1663407-.1279146-154.0024672-24.8221682-169.6366631-31.50739-10.9703615,28.0435968-22.2554604,59.5173251-33.3537365,94.5827612Z"/>
      <path class="cls-1" d="M117.1371916,309.0488589c-7.1447046,22.5701977-14.1934733,46.6821031-21.0352222,72.1640414-2.4270116,9.0348114-4.8254106,18.2379315-7.190148,27.6430221,53.1064464,17.531035,102.0085414.0403941,103.6663821-21.6377674.0134647-.1716749-.018514-.2995895-.0084154-.464532,1.2639984-22.9606739-33.150083-10.2331694-32.3354689-24.0378496.8179803-13.9056654,60.0811593-.0807882,78.4082944-29.8949926,1.4053777-2.2856322,2.3209771-4.3154353,3.0312398-6.244253-55.9525467,2.2284073-108.6365383-12.5726604-124.5366618-17.5276688Z"/>
      <path class="cls-1" d="M12.4424433,216.3982816c-.7742201,1.4036946-1.4727012,3.0261906-2.068514,4.9651069-10.2920775,33.4496725,62.4846076,78.3847312,52.5830064,88.180298-8.9254108,8.8261086-20.5572255-11.3440069-34.9004936-3.0127259-1.5720033.9155994-3.1675699,2.0701971-4.8052136,3.749918-16.2215932,16.6188018-.2541461,64.4958967,45.7698699,90.0518908-10.7397786,36.0618236-21.4324308,76.351562-31.8995493,118.4859638,3.7970444-1.3296388,8.3413795-2.6626438,9.4724141-6.244253,1.6982349-6.9814452,12.1939658-49.4625629,29.2352225-107.0948305,0,0,3.1103449-11.8051727,8.8042285-31.254927,5.2646964-17.9854685,12.7460184-42.5147795,22.0484407-70.3867014-45.577998-29.6627266-78.2164225-66.8555847-94.2394114-87.4397396Z"/>
    </g>
  </g>
</svg>