<?xml version="1.0" encoding="UTF-8"?>
<svg width="1em" height="1em" viewBox="0 0 24 24" version="1.1" xmlns="http://www.w3.org/2000/svg" xmlns:xlink="http://www.w3.org/1999/xlink">
    <!-- Generator: Sketch 58 (84663) - https://sketch.com -->
    <title>ic-kudu-alt</title>
    <desc>Created with Sketch.</desc>
    <defs>
        <radialGradient cx="56.8782475%" cy="61.2284615%" fx="56.8782475%" fy="61.2284615%" r="52.4297358%" gradientTransform="translate(0.568782,0.612285),scale(0.850000,1.000000),rotate(-44.348814),translate(-0.568782,-0.612285)" id="radialGradient-1">
            <stop stop-color="#24AAE1" offset="0%"></stop>
            <stop stop-color="#0E75BC" offset="100%"></stop>
        </radialGradient>
    </defs>
    <g id="Symbols" stroke="none" stroke-width="1" fill="none" fill-rule="evenodd">
        <g id="icon/service/apache/kudu-2" fill="url(#radialGradient-1)">
            <path d="M21.727,3.64887423 C21.194,4.01954068 20.553,4.23424365 19.71,4.32134014 L19.71,4.32134014 C19.161,4.37906688 18.893,4.36691389 17.068,4.19575916 L17.068,4.19575916 C16.387,4.13296867 15.447,4.05701243 14.977,4.02764268 L14.977,4.02764268 C13.766,3.95269919 13.459,4.00029843 12.417,4.42261513 L12.417,4.42261513 C11.545,4.77606483 10.598,5.05457104 8.904,5.45561999 L8.904,5.45561999 C7.309,5.83135019 7.312,5.83033744 7.087,5.98123717 L7.087,5.98123717 C6.821,6.1584684 6.743,6.34582712 6.739,6.80257731 L6.739,6.80257731 L6.738,7.18742226 L6.9,7.20362626 C7.001,7.21375376 7.13,7.18235851 7.234,7.12361902 L7.234,7.12361902 C7.514,6.96563004 7.712,6.95145154 8.125,7.06285403 L8.125,7.06285403 C8.331,7.11855527 8.851,7.25831475 9.281,7.37275549 L9.281,7.37275549 C9.725,7.49124722 10.084,7.61277721 10.109,7.65227445 L10.109,7.65227445 C10.173,7.75658769 9.925,8.24068212 9.706,8.4412066 L9.706,8.4412066 C9.609,8.53134134 9.349,8.69135582 9.132,8.79769455 L9.132,8.79769455 C8.274,9.216973 7.721,9.85297991 7.283,10.9264948 L7.283,10.9264948 C6.832,12.0334304 6.749,13.2315135 7.05,14.2999646 L7.05,14.2999646 C7.106,14.4984635 7.162,14.743549 7.175,14.8427985 L7.175,14.8427985 C7.197,15.0018002 7.188,15.023068 7.098,15.023068 L7.098,15.023068 C6.982,15.023068 5.9,14.6372103 4.102,13.9556296 L4.102,13.9556296 C3.411,13.6943402 2.787,13.4796372 2.713,13.4796372 L2.713,13.4796372 C2.398,13.4796372 2,14.0882999 2,14.5703688 L2,14.5703688 C2,15.0119277 2.242,15.2732172 3.363,16.0408816 L3.363,16.0408816 C4.451,16.7862655 5.092,17.4344254 5.645,18.3499513 L5.645,18.3499513 C5.902,18.776319 6.083,18.9768435 6.392,19.1773679 L6.392,19.1773679 C6.736,19.4011857 7.131,19.5065116 7.616,19.5065116 L7.616,19.5065116 C8.075,19.5065116 8.176,19.4558741 8.116,19.2553497 L8.116,19.2553497 C8.04,19.0021622 7.855,18.841135 7.364,18.598075 L7.364,18.598075 C6.784,18.3094413 6.312,17.8982649 5.982,17.3949282 L5.982,17.3949282 C5.73,17.0100832 5.493,16.5320653 5.533,16.4905425 L5.533,16.4905425 C5.569,16.4540835 6.307,16.893617 8.213,18.0835981 L8.213,18.0835981 C10.227,19.3434589 10.196,19.3252294 10.861,19.6493094 L10.861,19.6493094 C11.223,19.8265406 11.593,19.9581981 11.965,20.0817536 L11.965,20.0817536 L15.138,14.4660556 C14.832,14.2452761 14.502,13.9981651 14.165,13.7277609 L14.165,13.7277609 C13.029,12.812235 12.183,12.2542098 11.558,12.0030479 L11.558,12.0030479 C11.433,11.9544359 11.331,11.8815179 11.331,11.8450589 L11.331,11.8450589 C11.331,11.8075872 11.499,11.5138897 11.706,11.1938607 L11.706,11.1938607 C12.982,9.208871 13.186,8.52323934 12.971,6.94740055 L12.971,6.94740055 C12.828,5.90122993 12.828,5.92047218 12.956,5.78375095 L12.956,5.78375095 C13.217,5.50119374 14.006,5.14673128 14.736,4.9846913 L14.736,4.9846913 C15.093,4.90670956 15.456,4.88341632 16.925,4.84898282 L16.925,4.84898282 C18.632,4.80948558 19.382,4.75074608 20.346,4.58060411 L20.346,4.58060411 C20.855,4.49148212 21.145,4.38615613 21.437,4.18158066 L21.437,4.18158066 C21.696,4.00131118 21.992,3.64786148 22,3.53544625 L22,3.53544625 L22,3.52531875 C21.998,3.50911475 21.988,3.5 21.968,3.5 L21.968,3.5 C21.953,3.5 21.845,3.56684149 21.727,3.64887423 L21.727,3.64887423 Z M12.225,20.1799903 C12.557,20.278227 12.902,20.334941 13.247,20.3926678 L13.247,20.3926678 L16.215,15.1375087 C16.202,15.132445 16.189,15.132445 16.176,15.1273812 L16.176,15.1273812 C16.019,15.063578 15.724,14.8802702 15.362,14.6280955 L15.362,14.6280955 L12.225,20.1799903 Z M13.825,20.4858408 C14.046,20.4979938 14.345,20.5040703 14.592,20.496981 L14.592,20.496981 C14.691,20.4909045 14.767,20.4655858 14.862,20.4544455 L14.862,20.4544455 L17.581,15.6388199 C17.291,15.3896834 16.999,15.23372 16.854,15.2347327 L16.854,15.2347327 C16.829,15.2347327 16.818,15.2306817 16.794,15.2306817 L16.794,15.2306817 L13.825,20.4858408 Z M15.954,20.1992325 C17.709,19.5622129 18.309,18.0765088 18.377,17.2095949 L18.377,17.2095949 C18.402,16.8905787 18.3,16.589792 18.146,16.3193878 L18.146,16.3193878 L15.954,20.1992325 Z" id="kudu"></path>
        </g>
    </g>
</svg>