<svg width="1em" height="1em" viewBox="0 0 24 24" xmlns="http://www.w3.org/2000/svg">
    <path d="M15.46 13.078c-.759 0-1.439.345-1.905.888l-1.193-.868c.127-.358.2-.742.2-1.145 0-.395-.07-.773-.193-1.126l1.19-.858c.466.54 1.145.884 1.901.884 1.4 0 2.54-1.17 2.54-2.608 0-1.437-1.14-2.607-2.54-2.607-1.4 0-2.54 1.17-2.54 2.607 0 .258.038.506.106.74l-1.192.86a3.262 3.262 0 0 0-2.03-1.212V7.158c1.15-.248 2.017-1.297 2.017-2.55C11.82 3.17 10.68 2 9.28 2S6.74 3.17 6.74 4.607c0 1.237.844 2.274 1.972 2.54V8.64C7.173 8.917 6 10.296 6 11.953c0 1.666 1.186 3.05 2.735 3.318v1.577c-1.139.257-1.994 1.3-1.994 2.545C6.74 20.83 7.88 22 9.28 22c1.4 0 2.54-1.17 2.54-2.607 0-1.246-.856-2.288-1.995-2.545V15.27a3.263 3.263 0 0 0 1.997-1.193l1.201.873a2.658 2.658 0 0 0-.104.734c0 1.437 1.14 2.607 2.54 2.607 1.4 0 2.54-1.17 2.54-2.607 0-1.438-1.14-2.607-2.54-2.607zm0-6.097c.68 0 1.232.567 1.232 1.264 0 .697-.553 1.264-1.232 1.264-.679 0-1.231-.567-1.231-1.264 0-.697.552-1.264 1.231-1.264zM8.05 4.607c0-.697.552-1.264 1.23-1.264.68 0 1.232.567 1.232 1.264 0 .697-.552 1.264-1.231 1.264-.68 0-1.232-.567-1.232-1.264zm2.462 14.786c0 .697-.552 1.264-1.231 1.264-.68 0-1.232-.567-1.232-1.264 0-.697.553-1.264 1.232-1.264.679 0 1.231.567 1.231 1.264zm-1.231-5.677c-.948 0-1.718-.79-1.718-1.763 0-.972.77-1.763 1.718-1.763.947 0 1.717.791 1.717 1.763 0 .973-.77 1.763-1.717 1.763zm6.18 3.233c-.68 0-1.232-.567-1.232-1.264 0-.697.552-1.264 1.231-1.264.68 0 1.232.567 1.232 1.264 0 .697-.553 1.264-1.232 1.264z"/>
</svg>
