<svg viewBox="0 0 24 24" fill="none" xmlns="http://www.w3.org/2000/svg" width="1em" height="1em">
  <path fill-rule="evenodd" clip-rule="evenodd" d="M4.051 12.347a1.41 1.41 0 01-.004-.313c.04-.63.385-1.342.855-1.765.18-.162.468-.331.563-.331.094 0 .152.098.223.373.037.145.095.3.13.345.033.046.056.087.051.092l-.297.234c-.384.304-.917.792-1.238 1.137-.219.233-.266.272-.283.228m6.667 4.419a5.553 5.553 0 01-2.45-.9c-.159-.108-.204-.155-.21-.218-.019-.157.126-.25.518-.333.346-.072.574-.187 1.096-.55.705-.494.984-.605 1.444-.58.216.012.35.047 1.064.285 1.07.354 2.204.755 2.29.81.195.123-.143.58-.672.906a4.344 4.344 0 01-1.467.54c-.299.055-1.292.08-1.613.04m7.768-2.408c0-.051-.19-.303-.326-.43-.262-.247-.53-.399-1.047-.593-.306-.115-.433-.186-.433-.243 0-.013.026-.05.058-.08.161-.16.931.037 1.475.376.215.135.46.324.664.514.156.145.182.16.182.105 0-.085-.14-.343-.314-.57-.432-.573-1.135-1.018-1.922-1.218-.636-.162-1.188-.172-1.658-.028-.435.132-.94.445-1.447.895-.714.632-.925.809-1.108.924-.11.07-.195.138-.19.153.004.015.086.052.182.083l.175.055.425-.194c.841-.383 1.613-.63 2.188-.7.878-.106 1.86.17 2.738.769.268.181.358.228.358.182m-11.767.87c.31-.082.617-.184.712-.233.197-.103.365-.282.484-.518.048-.094.137-.217.198-.274.061-.056.111-.122.111-.147 0-.222-.767-.323-1.26-.166-.6.19-1.173.795-1.186 1.255-.009.282.147.295.941.083m-.903.622a.49.49 0 00.153-.11c.121-.198-.359-.177-.488.021-.034.053-.034.067.007.107.063.064.18.057.328-.018m12.072 1.639a.567.567 0 01.162-.102l.123-.054.264.08c.331.1.764.114.882.03.038-.029.114-.082.168-.121.06-.043.12-.065.15-.055.03.01.053.012.053.007 0-.029-.405-.949-.443-1.007l-.046-.069-.144.114a8.642 8.642 0 01-.598.383c-.64.383-.84.577-.792.77.013.055.036.071.1.071.045 0 .1-.02.121-.047m-14.282.058c.132-.024.396-.091.587-.152.411-.129.726-.193 1.594-.33 1.02-.157 1.431-.242 1.885-.386.29-.092.553-.21.551-.246a.857.857 0 00-.19-.135 3.098 3.098 0 01-.43-.348c-.134-.13-.255-.234-.27-.234-.073 0-.254.1-.484.268-.657.478-.888.572-1.936.795-.52.11-.704.172-.947.32-.337.205-.409.239-.63.294a2.083 2.083 0 01-.432.058c-.3 0-.333.092-.05.142.165.029.422.014.752-.046M21.571 18.6c.01-.04.012-.216.003-.39-.026-.556-.199-.953-.594-1.367-.304-.317-.854-.702-1.006-.702-.058 0-.06.011-.046.137.01.076.07.276.135.447.065.17.126.37.134.444.015.118.007.144-.058.208-.089.089-.173.093-.302.015-.053-.031-.102-.052-.11-.044-.008.008-.005.065.006.129.04.229.173.321.687.473.755.222.91.323 1.028.674.026.076.102.06.123-.023m-.047.826a.532.532 0 01-.028-.157c0-.127-.098-.294-.243-.414a1.432 1.432 0 01-.228-.256c-.116-.172-.242-.24-.704-.38-.508-.154-.664-.286-.709-.6l-.023-.155-.093.133c-.18.26-.3.302-.546.19-.155-.072-.269-.078-.398-.023-.083.034-.098.033-.15-.015-.059-.052-.065-.052-.146-.004-.065.038-.117.045-.214.03-.156-.022-.24.022-.344.186-.197.31-.338.169-.337-.34.001-.566.27-.887 1.043-1.246.397-.185.578-.305.69-.458.084-.118.092-.122.13-.072.078.108.351.662.481.98.15.362.194.43.25.374.047-.048-.068-.381-.29-.845-.554-1.15-1.373-1.972-2.394-2.405-.469-.198-.699-.24-1.307-.239-.463 0-.577.01-.889.076-.457.097-.968.259-1.62.515-.656.257-.656.257-1.318.022a11.074 11.074 0 00-.714-.23c-.255-.065-.63-.076-.843-.026-.244.058-.587.24-1.008.536-.506.353-.779.494-1.14.587-.315.08-.448.152-.526.28-.063.1-.068.182-.022.285.033.07.343.295.705.51.098.06.186.119.194.133.022.033-.469.276-.827.41-.637.236-1.322.386-2.355.514-.688.085-.805.109-1.319.269a7.794 7.794 0 01-.659.175c-.695.144-1.325-.026-1.42-.383a.49.49 0 00-.07-.16c-.127-.145-.174-.494-.093-.683.024-.056.072-.267.106-.471.12-.7.24-1.08.501-1.568.457-.856 1.366-1.944 2.467-2.95.728-.665 1.42-1.178 3.018-2.233.987-.653.997-.661 1.111-.976.025-.07.147-.52.272-1 .388-1.496.637-2.06 1.1-2.494.26-.244.675-.396.916-.336.138.035.145.101.05.482-.159.634-.213 1.034-.215 1.599 0 .558.034.773.167 1.035.183.359.307.427 1.023.573 2.536.516 4.227 1.29 5.43 2.489 1.112 1.108 2.02 2.843 2.61 4.992l.112.409.215.165c.548.416.856.836 1.02 1.393.086.294.073.92-.028 1.29-.107.394-.199.56-.309.56-.032 0-.066-.03-.082-.073" fill="#050505"/>
</svg>
